<?xml version="1.0" encoding="UTF-8" standalone="no"?>
<svg
   xmlns:dc="http://purl.org/dc/elements/1.1/"
   xmlns:cc="http://creativecommons.org/ns#"
   xmlns:rdf="http://www.w3.org/1999/02/22-rdf-syntax-ns#"
   xmlns:svg="http://www.w3.org/2000/svg"
   xmlns="http://www.w3.org/2000/svg"
   id="svg2"
   version="1.1"
   width="120"
   height="119.99999"
   viewBox="0 0 120 119.99999">
  <metadata
     id="metadata8">
    <rdf:RDF>
      <cc:Work
         rdf:about="">
        <dc:format>image/svg+xml</dc:format>
        <dc:type
           rdf:resource="http://purl.org/dc/dcmitype/StillImage" />
        <dc:title></dc:title>
      </cc:Work>
    </rdf:RDF>
  </metadata>
  <defs
     id="defs6" />
  <path
     style="fill:#de5c0f;fill-opacity:1"
     d="M 52.112883,119.47676 C 43.719011,118.28131 35.255825,115.22424 28.149599,110.82073 22.128136,107.08942 13.734004,98.82296 9.8237321,92.77357 -3.2979361,72.4737 -3.2728438,47.02031 9.88884,26.72812 12.92835,22.04192 21.954843,12.89539 26.416147,9.98104 37.145497,2.97207 47.145822,0 60,0 c 12.854178,0 22.854506,2.97207 33.583856,9.98104 4.461304,2.91435 13.487804,12.06088 16.527304,16.74708 13.16168,20.29219 13.18678,45.74558 0.0651,66.04545 -3.91027,6.04939 -12.304403,14.31585 -18.325866,18.04716 -11.79439,7.30861 -26.58152,10.52969 -39.737521,8.65603 z m 16.855542,-4.27788 c 23.042669,-3.74431 41.450115,-21.68217 46.043315,-44.86872 0.91221,-4.60487 0.91221,-16.29703 0,-20.9019 C 112.80257,38.27637 107.43972,28.26852 99.364737,20.22872 92.120377,13.01593 83.689307,8.24174 73.267541,5.45087 68.974482,4.30122 67.398915,4.1463 60,4.1463 c -7.398914,0 -8.974481,0.15492 -13.267544,1.30457 -10.421764,2.79087 -18.85283,7.56506 -26.097189,14.77785 -8.074988,8.0398 -13.4378372,18.04765 -15.6469995,29.19954 -0.9122148,4.60487 -0.9122148,16.29703 0,20.9019 3.2902775,16.60937 13.9247785,31.10376 28.5517275,38.91484 10.859022,5.79894 23.405894,7.90748 35.42843,5.95388 z M 30.094577,86.04773 c -1.085504,-0.43757 -2.151891,-3.05911 -2.151891,-5.29005 0,-1.28723 -0.39285,-2.66603 -1.00502,-3.52736 -1.510211,-2.12488 -1.888675,-3.42341 -2.794059,-9.58651 -0.988468,-6.72869 -0.633241,-8.09431 3.094478,-11.89634 l 2.301552,-2.34744 -2.423427,-0.33279 c -3.90577,-0.53635 -5.759798,-3.12915 -4.253686,-5.94864 1.189479,-2.22673 7.348338,-2.55403 8.806708,-0.468 0.650916,0.93106 0.861245,0.65709 2.853224,-3.71642 2.469479,-5.42191 3.944377,-7.222 7.159078,-8.73756 2.131333,-1.0048 3.282982,-1.09127 16.640251,-1.24946 15.938238,-0.18875 18.73524,0.12744 21.98393,2.4852 1.612477,1.17027 2.577616,2.58027 4.429756,6.47157 1.302447,2.73642 2.437129,5.05574 2.521516,5.15403 0.08438,0.0983 0.669703,-0.30318 1.300713,-0.89216 1.592274,-1.48622 6.107609,-1.51679 7.570388,-0.0513 2.244618,2.24883 0.672027,6.58416 -2.41702,6.66327 -0.769632,0.0197 -1.805908,0.19682 -2.302831,0.3936 -0.780013,0.30886 -0.617805,0.63493 1.186845,2.38572 3.680754,3.57091 4.111828,5.45639 3.005548,13.14597 -0.761507,5.29307 -0.849334,5.59702 -2.18865,7.57432 -0.798946,1.17952 -1.297273,2.78384 -1.454417,4.68233 -0.174184,2.1044 -0.562316,3.23277 -1.430457,4.1586 -1.125238,1.20001 -1.492474,1.27059 -6.61133,1.27059 -4.965806,0 -5.509156,-0.0961 -6.485099,-1.14706 -0.585849,-0.63088 -1.224305,-2.01058 -1.418786,-3.06599 l -0.353607,-1.91894 -15.843467,0.13463 -15.843475,0.13463 -0.165139,1.78431 c -0.09082,0.98137 -0.645946,2.30048 -1.233602,2.93136 -0.983266,1.05559 -1.497579,1.14384 -6.449865,1.10681 -2.959767,-0.0221 -5.672439,-0.15756 -6.028159,-0.30096 z m 10.467496,-2.81957 c 0.335837,-0.33647 0.610614,-1.12417 0.610614,-1.75045 0,-1.09173 -0.209864,-1.14534 -5.089571,-1.3 l -5.089571,-0.1613 0.0012,1.57189 c 8.14e-4,0.86454 0.153761,1.72483 0.34034,1.91175 0.6104,0.61156 8.579681,0.37672 9.22708,-0.27189 z m 47.831551,0 c 0.335838,-0.33647 0.610615,-1.27865 0.610615,-2.09375 0,-1.14193 -0.18469,-1.41098 -0.804889,-1.17255 -0.442684,0.1702 -2.732492,0.30945 -5.088463,0.30945 -4.130586,0 -4.283574,0.0418 -4.283574,1.17254 0,1.94779 0.952007,2.39608 5.088463,2.39608 2.329385,0 4.11005,-0.24328 4.477848,-0.61177 z m -16.512063,-6.01442 16.715601,-0.001 1.730078,-1.73333 c 0.951542,-0.95333 1.730077,-1.98568 1.730077,-2.29411 0,-0.40191 -9.082133,-0.56079 -32.057317,-0.56079 -17.700906,0 -32.057314,0.19752 -32.057314,0.44105 0,0.89777 2.252618,3.27035 3.773189,3.97413 1.267931,0.58685 3.672897,0.67356 12.50989,0.45103 6.017108,-0.15151 18.462214,-0.27605 27.655796,-0.27673 z M 39.087527,67.95997 c 1.051088,-3.02082 1.125168,-2.98274 -5.801955,-2.98274 l -6.360578,0 0,1.48771 c 0,3.03469 0.129723,3.10052 6.110816,3.10052 l 5.49309,0 0.558627,-1.60549 z m 5.111481,-0.30627 c 0.692898,-2.4997 0.67703,-2.67647 -0.240261,-2.67647 -0.72982,0 -1.139555,0.70884 -1.989133,3.44117 -0.288846,0.92895 -0.161182,1.14706 0.671404,1.14706 0.754546,0 1.169052,-0.50864 1.55799,-1.91176 z m 28.742916,0.7647 c -1.178643,-3.79065 0.152104,-3.44117 -13.103207,-3.44117 l -11.889939,0 -0.589391,1.97091 c -0.324163,1.084 -0.58939,2.11635 -0.58939,2.29411 0,0.17776 5.96893,0.32321 13.264296,0.32321 l 13.264291,0 -0.35666,-1.14706 z m 4.687932,-1.01961 c -0.457445,-1.58832 -0.918948,-2.20945 -1.728954,-2.32698 -1.092835,-0.15856 -1.096267,-0.13481 -0.313551,2.16666 0.555692,1.63394 1.070633,2.32699 1.728954,2.32699 0.861655,0 0.887041,-0.1754 0.313551,-2.16667 z m 15.127125,0.57353 c 0.621981,-3.11576 0.874629,-2.99509 -6.270505,-2.99509 l -6.58853,0 0.52719,1.65686 c 0.289956,0.91127 0.614332,1.94362 0.720831,2.29411 0.139469,0.45899 1.746076,0.63726 5.743312,0.63726 l 5.549673,0 0.318029,-1.59314 z m -22.005136,-6.0539 c 26.071778,0 24.322898,0.42637 19.342502,-4.71568 l -2.839212,-2.93136 -27.255135,0 -27.255132,0 -2.85674,2.93136 c -1.571204,1.61225 -3.022425,3.48488 -3.22493,4.16138 l -0.368193,1.23002 10.828388,-0.33786 c 5.955612,-0.18582 21.088416,-0.33786 33.628452,-0.33786 z M 72.825353,51.38747 85.815788,51.05258 83.67624,46.4169 c -2.807044,-6.08194 -2.363355,-5.93406 -18.8422,-6.28002 -13.297326,-0.27916 -24.073176,0.3493 -25.799937,1.50469 -0.776614,0.51964 -4.985261,8.81148 -4.985261,9.82192 0,0.36688 23.373954,0.32106 38.776511,-0.076 z M 29.469225,49.17336 c 0,-0.84967 -0.339234,-1.01961 -2.035385,-1.01961 -1.356926,0 -2.035385,0.22658 -2.035385,0.67974 0,1.05293 0.53544,1.35947 2.374614,1.35947 1.356922,0 1.696156,-0.20392 1.696156,-1.0196 z m 65.013213,0.28927 c 0.644224,-0.64544 -0.844518,-1.37592 -2.483459,-1.21856 -1.201643,0.11536 -1.76899,0.45352 -1.897215,1.13079 -0.162493,0.8583 0.05485,0.93425 1.946032,0.68012 1.170928,-0.15735 2.266515,-0.42391 2.434642,-0.59235 z M 60.76327,37.22071 c 8.116098,7.3e-4 15.405423,0.176 16.198507,0.38956 2.190429,0.58985 1.168893,-0.53053 -1.078713,-1.18309 -2.775216,-0.80574 -19.828601,-1.20289 -26.37122,-0.61415 -3.391827,0.30521 -6.242177,0.83896 -7.123848,1.334 -1.467835,0.82415 -1.466447,0.82473 1.0745,0.44882 1.399327,-0.20702 9.184675,-0.37583 17.300774,-0.37514 z"
     id="path8070" />
</svg>
