<?xml version="1.0" encoding="UTF-8" standalone="no"?>
<svg
   xmlns:dc="http://purl.org/dc/elements/1.1/"
   xmlns:cc="http://creativecommons.org/ns#"
   xmlns:rdf="http://www.w3.org/1999/02/22-rdf-syntax-ns#"
   xmlns:svg="http://www.w3.org/2000/svg"
   xmlns="http://www.w3.org/2000/svg"
   id="svg2"
   version="1.1"
   width="65"
   height="65"
   viewBox="0 0 65 64.999999">
  <metadata
     id="metadata8">
    <rdf:RDF>
      <cc:Work
         rdf:about="">
        <dc:format>image/svg+xml</dc:format>
        <dc:type
           rdf:resource="http://purl.org/dc/dcmitype/StillImage" />
        <dc:title></dc:title>
      </cc:Work>
    </rdf:RDF>
  </metadata>
  <defs
     id="defs6" />
  <path
     style="fill:#ffffff;fill-opacity:1"
     d="M 28.227812,64.716582 C 23.681131,64.069042 19.096905,62.413132 15.2477,60.027892 11.986074,58.006772 7.4392522,53.529102 5.3211883,50.252352 -1.7863821,39.256588 -1.7727904,25.469335 5.3564551,14.477732 7.0028563,11.939373 11.892207,6.985003 14.308746,5.406396 20.120478,1.609871 25.53732,0 32.5,0 c 6.96268,0 12.379524,1.609871 18.191256,5.406396 2.416539,1.578607 7.305894,6.532977 8.95229,9.071336 7.129243,10.991603 7.142839,24.778856 0.03526,35.77462 -2.118063,3.27675 -6.664885,7.75442 -9.926511,9.77554 -6.388628,3.95883 -14.398323,5.70359 -21.524491,4.68869 z m 9.130085,-2.31719 c 12.481446,-2.02817 22.452146,-11.74451 24.940129,-24.303888 0.494114,-2.494305 0.494114,-8.827558 0,-11.321863 C 61.101393,20.733034 58.196516,15.312115 53.822566,10.957223 49.898538,7.050295 45.331708,4.464275 39.686585,2.952554 37.361178,2.329827 36.507746,2.245912 32.5,2.245912 c -4.007745,0 -4.861177,0.08391 -7.186586,0.706642 -5.645122,1.511721 -10.21195,4.097741 -14.135978,8.004669 -4.3739515,4.354892 -7.2788281,9.775811 -8.4754577,15.816418 -0.4941164,2.494305 -0.4941164,8.827558 0,11.321863 1.7822336,8.996738 7.5425887,16.847868 15.4655187,21.078868 5.881971,3.1411 12.678193,4.28322 19.1904,3.22502 z m -21.056668,-15.7902 c -0.587981,-0.23702 -1.165607,-1.657022 -1.165607,-2.865448 0,-0.69725 -0.212794,-1.4441 -0.544386,-1.910654 -0.818031,-1.150976 -1.023032,-1.854347 -1.513449,-5.192693 -0.53542,-3.644707 -0.343005,-4.384418 1.676176,-6.443851 l 1.246674,-1.27153 -1.31269,-0.180261 c -2.115625,-0.290523 -3.11989,-1.694956 -2.30408,-3.22218 0.644301,-1.206145 3.98035,-1.383433 4.7703,-0.2535 0.35258,0.504324 0.466508,0.355924 1.545497,-2.013061 1.337634,-2.936868 2.136537,-3.911917 3.877834,-4.732845 1.154472,-0.544267 1.778282,-0.591105 9.013469,-0.676791 8.633212,-0.102239 10.148255,0.06903 11.907962,1.34615 0.873425,0.633897 1.396209,1.397647 2.399452,3.505434 0.705492,1.482228 1.320111,2.738526 1.365821,2.791766 0.04571,0.05325 0.362755,-0.164222 0.704553,-0.483253 0.862481,-0.805036 3.308288,-0.821595 4.100626,-0.02779 1.215835,1.218116 0.364015,3.56642 -1.309219,3.609271 -0.416884,0.01067 -0.9782,0.106611 -1.247367,0.2132 -0.422507,0.167299 -0.334644,0.34392 0.642875,1.292265 1.993742,1.934243 2.22724,2.955545 1.628005,7.120734 -0.412483,2.867079 -0.460056,3.031719 -1.185519,4.102757 -0.432762,0.638906 -0.702689,1.507913 -0.787809,2.536262 -0.09435,1.139883 -0.304588,1.751088 -0.774831,2.252578 -0.609504,0.65001 -0.808423,0.68824 -3.581137,0.68824 -2.689812,0 -2.984126,-0.0521 -3.512762,-0.62133 -0.317335,-0.34172 -0.663165,-1.08906 -0.768509,-1.660746 l -0.191537,-1.039426 -8.581878,0.07292 -8.581883,0.07292 -0.08945,0.966501 c -0.04919,0.531581 -0.349887,1.246101 -0.668201,1.587821 -0.532602,0.57178 -0.811189,0.61958 -3.493677,0.59952 -1.603207,-0.012 -3.072571,-0.0853 -3.265253,-0.16302 z m 5.669894,-1.52727 c 0.181912,-0.182256 0.330749,-0.608927 0.330749,-0.948162 0,-0.591354 -0.113676,-0.620392 -2.756851,-0.704167 l -2.756851,-0.08737 6.5e-4,0.85144 c 4.41e-4,0.468292 0.08329,0.934279 0.184351,1.035529 0.330634,0.33126 4.647327,0.20406 4.998002,-0.14727 z m 25.908757,0 c 0.181912,-0.182256 0.33075,-0.692604 0.33075,-1.134116 0,-0.618546 -0.100041,-0.764281 -0.435982,-0.635131 -0.239787,0.09219 -1.4801,0.167618 -2.75625,0.167618 -2.237401,0 -2.32027,0.02264 -2.32027,0.635126 0,1.055053 0.515671,1.297873 2.756251,1.297873 1.26175,0 2.226277,-0.13177 2.425501,-0.33137 z m -8.944034,-3.257812 9.054284,-5.42e-4 0.937125,-0.938887 c 0.515419,-0.516387 0.937125,-1.075577 0.937125,-1.242643 0,-0.217701 -4.919488,-0.303761 -17.36438,-0.303761 -9.587991,0 -17.364378,0.10699 -17.364378,0.238902 0,0.486292 1.220168,1.771439 2.04381,2.152653 0.686796,0.317878 1.989486,0.364845 6.776191,0.244308 3.259267,-0.08207 10.000366,-0.149527 14.980223,-0.149895 z M 21.172411,36.811651 C 21.74175,35.175373 21.781877,35.196 18.029685,35.196 l -3.445313,0 0,0.805843 c 0,1.64379 0.07027,1.679448 3.310025,1.679448 l 2.975424,0 0.30259,-0.86964 z M 23.94113,36.645754 C 24.316449,35.29175 24.307854,35.196 23.810988,35.196 c -0.395319,0 -0.617259,0.383955 -1.077447,1.863967 -0.156458,0.503181 -0.08731,0.621324 0.363677,0.621324 0.408713,0 0.633237,-0.275513 0.843912,-1.035537 z m 15.569079,0.414213 C 38.871778,35.006698 39.592599,35.196 32.412639,35.196 l -6.440384,0 -0.319253,1.067576 c -0.175589,0.587167 -0.319253,1.146356 -0.319253,1.242643 0,0.09629 3.23317,0.175072 7.184827,0.175072 l 7.184824,0 -0.193191,-0.621324 z m 2.539297,-0.552289 c -0.247783,-0.86034 -0.497764,-1.196785 -0.936517,-1.260447 -0.591952,-0.08589 -0.593811,-0.07302 -0.16984,1.173607 0.301,0.885051 0.579926,1.260453 0.936517,1.260453 0.466729,0 0.48048,-0.09501 0.16984,-1.173613 z m 8.193859,0.310662 C 50.580272,35.130637 50.717123,35.196 46.846842,35.196 l -3.568788,0 0.285562,0.897466 c 0.157059,0.493604 0.332763,1.052794 0.39045,1.242643 0.07555,0.248619 0.945791,0.345182 3.110961,0.345182 l 3.006072,0 0.172266,-0.862951 z M 38.323916,33.539144 c 14.122214,0 13.174904,0.230951 10.477189,-2.554326 l -1.537906,-1.58782 -14.763199,0 -14.763196,0 -1.547401,1.58782 c -0.851069,0.873302 -1.637147,1.887643 -1.746837,2.254081 l -0.199438,0.66626 5.865377,-0.183007 c 3.225956,-0.100653 11.422892,-0.183008 18.215411,-0.183008 z M 39.447067,27.83488 46.483552,27.653481 45.32463,25.142488 C 43.804148,21.848103 44.04448,21.928205 35.118439,21.74081 27.91572,21.589598 22.078802,21.930014 21.143473,22.55585 c -0.420666,0.281472 -2.70035,4.772886 -2.70035,5.320207 0,0.198727 12.660892,0.173908 21.003944,-0.04117 z m -23.48457,-1.19931 c 0,-0.460238 -0.183752,-0.552289 -1.1025,-0.552289 -0.735002,0 -1.1025,0.122731 -1.1025,0.368193 0,0.570337 0.29003,0.736379 1.286249,0.736379 0.734999,0 0.918751,-0.110456 0.918751,-0.552283 z m 35.215491,0.156688 c 0.348954,-0.349613 -0.457448,-0.74529 -1.345207,-0.660053 -0.65089,0.06249 -0.958203,0.245656 -1.027658,0.612511 -0.08802,0.464912 0.02971,0.506052 1.0541,0.368398 0.634253,-0.08523 1.227696,-0.229618 1.318765,-0.320856 z m -18.26455,-6.63104 c 4.39622,3.95e-4 8.344604,0.09533 8.774192,0.211012 1.186482,0.319502 0.63315,-0.287371 -0.584303,-0.640841 -1.503242,-0.436442 -10.740493,-0.651565 -14.284411,-0.332664 -1.83724,0.165322 -3.381179,0.454436 -3.858751,0.722583 -0.795078,0.446414 -0.794326,0.446729 0.582021,0.243111 0.757968,-0.112136 4.975032,-0.203575 9.371252,-0.203201 z"
     id="path8070" />
</svg>
