<?xml version="1.0" encoding="UTF-8" standalone="no"?>
<svg
   xmlns:dc="http://purl.org/dc/elements/1.1/"
   xmlns:cc="http://creativecommons.org/ns#"
   xmlns:rdf="http://www.w3.org/1999/02/22-rdf-syntax-ns#"
   xmlns:svg="http://www.w3.org/2000/svg"
   xmlns="http://www.w3.org/2000/svg"
   viewBox="0 0 65 65"
   height="65"
   width="65"
   version="1.1"
   id="svg2">
  <metadata
     id="metadata8">
    <rdf:RDF>
      <cc:Work
         rdf:about="">
        <dc:format>image/svg+xml</dc:format>
        <dc:type
           rdf:resource="http://purl.org/dc/dcmitype/StillImage" />
        <dc:title></dc:title>
      </cc:Work>
    </rdf:RDF>
  </metadata>
  <defs
     id="defs6" />
  <path
     id="path8074"
     d="m 28.227812,64.716582 c -4.546681,-0.64754 -9.130908,-2.30345 -12.980113,-4.68869 -3.261626,-2.02112 -7.8084475,-6.49879 -9.9265094,-9.77554 C -1.7863825,39.256588 -1.7727909,25.469335 5.3564564,14.477732 7.0028555,11.939373 11.892206,6.985003 14.308745,5.406396 20.120477,1.609871 25.537321,0 32.5,0 c 6.96268,0 12.379524,1.609871 18.191255,5.406396 2.416537,1.578607 7.305893,6.532977 8.952289,9.071336 7.129248,10.991603 7.142839,24.778856 0.03526,35.77462 -2.118063,3.27675 -6.664885,7.75442 -9.92651,9.77554 -6.388627,3.95883 -14.398322,5.70359 -21.524489,4.68869 z m 9.130085,-2.31719 C 48.10415,60.653182 57.185385,53.141192 60.909592,42.917437 64.956232,31.808541 62.358436,19.69884 54.123991,11.286139 50.048014,7.121925 45.540817,4.520273 39.686584,2.952554 37.361177,2.329827 36.507745,2.245912 32.5,2.245912 c -4.007745,0 -4.861177,0.08391 -7.186586,0.706642 C 19.459181,4.520273 14.951986,7.121925 10.876007,11.286139 2.6415628,19.69884 0.0437701,31.808541 4.0904113,42.917437 8.3958359,54.736752 19.60519,62.650992 32.224375,62.781092 c 1.440141,0.0148 3.750226,-0.15692 5.133522,-0.3817 z m -4.444459,-13.32494 c -15.348762,-0.0664 -15.437699,-0.07 -15.917348,-0.65192 -0.444815,-0.53961 -0.482344,-1.63416 -0.482344,-14.067573 0,-13.293654 0.08469,-14.706748 0.913024,-15.23444 0.18001,-0.114671 1.111111,-0.210399 2.069116,-0.212729 1.649704,-0.0038 1.737168,0.02866 1.65375,0.617094 -0.07624,0.537843 -0.291765,0.639876 -1.604014,0.759395 l -1.515938,0.138071 0,13.669078 0,13.669084 1.998282,0.0811 1.998282,0.0811 0,-12.162398 0,-12.162389 -1.486449,0 c -1.104518,0 -1.529666,-0.112834 -1.654645,-0.439134 -0.281952,-0.736131 0.0762,-0.941579 1.641422,-0.941579 l 1.499672,0 0,-2.586117 c 0,-2.198176 0.0857,-2.695269 0.571256,-3.313717 0.564209,-0.718629 0.61495,-0.727599 4.114687,-0.727599 3.816299,0 4.226153,0.13773 4.576964,1.538095 0.158904,0.634313 0.278745,0.671049 2.189147,0.671049 2.067206,0 2.458229,0.170235 2.162792,0.941579 -0.132291,0.345394 -0.593628,0.439135 -2.161125,0.439135 l -1.992932,0 -0.174471,14.146649 c -0.09596,7.780657 -0.07378,14.247526 0.04929,14.370826 0.123068,0.1233 1.328722,0.18799 2.679234,0.14376 l 2.455476,-0.0804 0.06669,-15.049798 c 0.07827,-17.66179 -0.286145,-16.016293 3.546966,-16.016293 3.228445,0 3.414781,0.21027 3.414781,3.853384 l 0,2.748813 1.860469,0.08166 c 1.649552,0.07239 1.860469,0.144262 1.860469,0.633934 0,0.489677 -0.210917,0.561546 -1.860469,0.63394 l -1.860469,0.08165 0,11.595757 0,11.595743 2.549532,-0.0794 2.549532,-0.0794 0.07157,-13.174165 0.07157,-13.174162 -2.13876,-0.0807 c -1.928161,-0.07275 -2.13876,-0.135081 -2.13876,-0.632986 0,-0.500939 0.210377,-0.559726 2.262936,-0.63231 3.689914,-0.130444 3.387377,-1.414595 3.387377,14.37806 0,14.167963 -0.01376,14.322283 -1.300787,14.593573 -0.269925,0.0569 -7.436527,0.0734 -15.925779,0.0367 z M 29.874949,33.746251 c 0.108233,-7.783778 0.153996,-14.711521 0.101697,-15.394974 l -0.09508,-1.242643 -3.169688,0 -3.169688,0 -0.08637,0.897465 -0.08637,0.897466 2.744227,0 c 2.077207,0 2.779652,0.0925 2.889988,0.380565 0.288454,0.753117 -0.461423,1.000149 -3.035975,1.000149 l -2.563313,0 0,13.807149 0,13.807154 3.136898,0 3.136895,0 0.196783,-14.152331 z m -5.358056,11.817211 c -0.599015,-0.723125 -0.02174,-0.978597 2.211247,-0.978597 1.963749,0 2.188734,0.05373 2.188734,0.522737 0,0.67838 -0.516907,0.85798 -2.469419,0.85798 -1.062356,0 -1.709039,-0.1347 -1.930562,-0.40212 z m 0.111566,-2.221239 c -0.529614,-0.410031 -0.529614,-0.4184 0,-0.828431 0.950887,-0.736174 4.288415,-0.408677 4.288415,0.420799 0,0.267638 -0.196189,0.562039 -0.435981,0.654231 -0.853346,0.328071 -3.313563,0.170592 -3.852434,-0.246599 z M 24.398551,33.102344 c -0.21789,-0.568874 -0.21789,-7.670244 0,-8.239124 0.1311,-0.342284 0.596287,-0.436794 2.149875,-0.436794 1.1745,0 2.11738,0.135059 2.313323,0.33137 0.370355,0.371052 0.413112,2.107332 0.149941,6.088951 l -0.177957,2.692397 -2.13394,0 c -1.691615,0 -2.16862,-0.09054 -2.301242,-0.4368 z m 3.140198,-4.119559 0,-3.175645 -0.964687,0 -0.964688,0 0,3.175645 0,3.175646 0.964688,0 0.964687,0 0,-3.175646 z m 14.608129,4.004071 0,-14.911721 -2.067188,0 -2.067188,0 0,0.952721 0,0.952721 1.584844,0.08282 c 1.373541,0.07177 1.584844,0.156449 1.584844,0.635099 0,0.478654 -0.211303,0.563328 -1.584844,0.635104 l -1.584844,0.08281 0,13.241085 0,13.241087 2.067188,0 2.067188,0 0,-14.911727 z m -3.12375,12.794626 c -0.101063,-0.10125 -0.183751,-0.41191 -0.183751,-0.69036 0,-0.405274 0.216666,-0.506257 1.086232,-0.506257 1.202558,0 1.61664,0.365474 1.108749,0.978597 -0.338523,0.40866 -1.676217,0.55367 -2.01123,0.21802 z m 0.16078,-2.20793 c -0.189493,-0.0766 -0.344531,-0.377455 -0.344531,-0.668557 0,-0.432072 0.199493,-0.529274 1.086232,-0.529274 1.202558,0 1.61664,0.365474 1.108749,0.978597 -0.326936,0.394669 -1.169546,0.494504 -1.85045,0.219234 z M 38.944114,29.824438 c -0.236569,-0.617647 0.125712,-0.979724 0.98028,-0.979724 0.835183,0 1.555506,0.621958 1.265258,1.092477 -0.273537,0.443419 -2.067005,0.353367 -2.245538,-0.112753 z m -0.0057,-2.224127 c -0.253209,-0.661093 0.256991,-1.016958 1.312984,-0.915823 0.717419,0.06871 0.930829,0.215773 0.930829,0.641436 0,0.439086 -0.212308,0.569882 -1.035809,0.638122 -0.757542,0.06278 -1.082067,-0.03494 -1.208004,-0.363735 z m 0,-2.20915 c -0.253209,-0.661088 0.256991,-1.016952 1.312984,-0.915817 0.717414,0.06871 0.930825,0.215773 0.930825,0.641436 0,0.439086 -0.212308,0.569882 -1.03581,0.638121 -0.757541,0.06279 -1.082069,-0.03494 -1.208003,-0.36374 z M 19.142757,45.593252 c -0.73555,-0.53885 -0.283715,-1.008387 0.970383,-1.008387 0.88202,0 1.086235,0.09828 1.086235,0.522737 0,0.84891 -1.180309,1.12763 -2.056618,0.48565 z m 13.265372,0.18823 c -0.101064,-0.10125 -0.183751,-0.41191 -0.183751,-0.69036 0,-0.433641 0.232969,-0.506257 1.62426,-0.506257 1.659406,0 2.269543,0.406705 1.606577,1.070917 -0.331515,0.33214 -2.741793,0.43157 -3.047086,0.1257 z m 12.048489,-0.21689 c -0.27484,-0.717576 0.176519,-0.979727 1.686825,-0.979727 1.568775,0 2.054885,0.31589 1.505918,0.978597 -0.455751,0.55018 -2.982106,0.55107 -3.192743,10e-4 z m -11.887709,-1.99104 c -0.189493,-0.0766 -0.344531,-0.377455 -0.344531,-0.668557 0,-0.461728 0.207289,-0.529274 1.62426,-0.529274 1.18211,0 1.667011,0.111605 1.781299,0.410004 0.283534,0.740253 -1.831914,1.284714 -3.061028,0.787827 z m 12.127503,0 c -0.189494,-0.0766 -0.344532,-0.377455 -0.344532,-0.668557 0,-0.46221 0.207482,-0.529274 1.637482,-0.529274 1.711797,0 2.221655,0.300571 1.659999,0.978597 -0.321103,0.387633 -2.192687,0.526581 -2.952949,0.219234 z M 18.902498,43.296197 c -0.322741,-0.323348 -0.199356,-0.616536 0.393174,-0.93424 0.810922,-0.434812 1.903703,-0.10686 1.903703,0.571307 0,0.450141 -0.187139,0.547029 -1.056564,0.547029 -0.581108,0 -1.139249,-0.08284 -1.240313,-0.184096 z M 44.35188,32.470073 c 0,-1.824144 0.112839,-3.386495 0.250753,-3.471888 0.137912,-0.08539 0.4518,-0.07797 0.697528,0.01652 0.382918,0.147214 0.435714,0.630814 0.369403,3.383645 -0.07452,3.093556 -0.100217,3.215133 -0.697527,3.300126 -0.613592,0.08731 -0.620157,0.05314 -0.620157,-3.228388 z m 2.332137,2.935698 c -0.08075,-0.210833 -0.111388,-1.742255 -0.06808,-3.403162 0.07326,-2.80943 0.117156,-3.019824 0.630001,-3.019824 0.52059,0 0.551251,0.184096 0.551251,3.30993 0,2.934951 -0.05474,3.320498 -0.483178,3.403162 -0.265748,0.0513 -0.549248,-0.07927 -0.629999,-0.290106 z m -14.397624,-6.340593 0.0758,-4.500681 1.576205,-0.08256 c 1.953267,-0.102305 1.918225,-0.200113 1.810541,5.053132 l -0.07925,3.866006 -1.729547,0.08239 -1.72955,0.08239 0.0758,-4.500676 z m 2.142985,-0.08239 c 0,-2.638702 -0.0699,-3.175645 -0.413437,-3.175645 -0.343535,0 -0.413438,0.536943 -0.413438,3.175645 0,2.638702 0.0699,3.175646 0.413438,3.175646 0.343532,0 0.413437,-0.536944 0.413437,-3.175646 z M 18.881273,32.19849 c -0.395019,-0.640358 0.183222,-1.173781 1.181765,-1.090169 0.786956,0.06589 0.998524,0.200628 0.998524,0.635895 0,0.436263 -0.211757,0.569974 -1.007988,0.636463 -0.554394,0.04631 -1.08193,-0.0357 -1.172301,-0.182189 z m 0,-2.209144 c -0.395019,-0.640359 0.183222,-1.173781 1.181765,-1.09017 0.786956,0.06589 0.998524,0.200628 0.998524,0.635895 0,0.436264 -0.211757,0.569975 -1.007988,0.636464 -0.554394,0.04631 -1.08193,-0.0357 -1.172301,-0.182189 z"
     style="fill:#ffffff;fill-opacity:1" />
  <path
     id="path8070"
     d=""
     style="fill:#de5c0f;fill-opacity:1" />
</svg>
