<?xml version="1.0" encoding="UTF-8" standalone="no"?>
<svg
   xmlns:dc="http://purl.org/dc/elements/1.1/"
   xmlns:cc="http://creativecommons.org/ns#"
   xmlns:rdf="http://www.w3.org/1999/02/22-rdf-syntax-ns#"
   xmlns:svg="http://www.w3.org/2000/svg"
   xmlns="http://www.w3.org/2000/svg"
   viewBox="0 0 120 120"
   height="120"
   width="120"
   version="1.1"
   id="svg2">
  <metadata
     id="metadata8">
    <rdf:RDF>
      <cc:Work
         rdf:about="">
        <dc:format>image/svg+xml</dc:format>
        <dc:type
           rdf:resource="http://purl.org/dc/dcmitype/StillImage" />
        <dc:title></dc:title>
      </cc:Work>
    </rdf:RDF>
  </metadata>
  <defs
     id="defs6" />
  <path
     id="path8074"
     d="M 52.112885,119.47676 C 43.719013,118.28131 35.255824,115.22424 28.149598,110.82073 22.128135,107.08942 13.734003,98.82296 9.8237348,92.77357 -3.297937,72.4737 -3.2728448,47.02031 9.8888428,26.72812 12.928349,22.04192 21.954842,12.89539 26.416146,9.98104 37.145496,2.97207 47.145824,0 60.000002,0 72.85418,0 82.854507,2.97207 93.583857,9.98104 c 4.4613,2.91435 13.487803,12.06088 16.527303,16.74708 13.16169,20.29219 13.18678,45.74558 0.0651,66.04545 -3.91027,6.04939 -12.304403,14.31585 -18.325865,18.04716 -11.794389,7.30861 -26.581519,10.52969 -39.73752,8.65603 z m 16.855541,-4.27788 C 88.807663,111.97511 105.57302,98.10681 112.44848,79.23219 119.9192,58.72346 115.12327,36.36709 99.921217,20.83595 92.396336,13.14817 84.075356,8.34512 73.267542,5.45087 68.974483,4.30122 67.398916,4.1463 60.000002,4.1463 52.601088,4.1463 51.025521,4.30122 46.732458,5.45087 35.924643,8.34512 27.603667,13.14817 20.078783,20.83595 4.8767315,36.36709 0.08080637,58.72346 7.5515288,79.23219 c 7.9484762,21.82028 28.6426682,36.43117 51.9396272,36.67136 2.658722,0.0274 6.923493,-0.28969 9.47727,-0.70467 z M 60.763272,90.59899 C 32.427094,90.4764 32.262904,90.46968 31.377397,89.39545 30.556201,88.39924 30.486916,86.37853 30.486916,63.42454 c 0,-24.54213 0.156351,-27.15092 1.685584,-28.12512 0.332326,-0.2117 2.051282,-0.38843 3.819905,-0.39273 3.045608,-0.007 3.20708,0.0529 3.053078,1.13925 -0.140755,0.99294 -0.538644,1.18131 -2.961257,1.40196 l -2.798655,0.2549 0,25.23522 0,25.23523 3.689136,0.14978 3.689136,0.14979 0,-22.45365 0,-22.45364 -2.744213,0 c -2.03911,0 -2.823999,-0.20831 -3.05473,-0.81071 -0.520526,-1.35901 0.140673,-1.7383 3.030318,-1.7383 l 2.768625,0 0,-4.77437 c 0,-4.05817 0.158207,-4.97588 1.054627,-6.11763 1.041616,-1.3267 1.135293,-1.34326 7.596346,-1.34326 7.045474,0 7.802128,0.25427 8.44978,2.83956 0.29336,1.17104 0.514606,1.23886 4.041501,1.23886 3.81638,0 4.53827,0.31428 3.992848,1.7383 -0.24423,0.63765 -1.095929,0.81071 -3.98977,0.81071 l -3.67926,0 -0.3221,26.11689 c -0.177156,14.36429 -0.136208,26.30313 0.09099,26.53076 0.227202,0.22762 2.453026,0.34705 4.946279,0.26539 l 4.533185,-0.14848 0.123125,-27.78424 c 0.144492,-32.60638 -0.528268,-29.56854 6.548245,-29.56854 5.960206,0 6.304211,0.38819 6.304211,7.11394 l 0,5.07473 3.434712,0.15075 c 3.045327,0.13365 3.434712,0.26633 3.434712,1.17034 0,0.90402 -0.389385,1.0367 -3.434712,1.17035 l -3.434712,0.15074 0,21.40755 0,21.40754 4.706828,-0.14658 4.706828,-0.14658 0.132133,-24.32154 0.132133,-24.32153 -3.94848,-0.14899 c -3.559681,-0.13431 -3.94848,-0.24938 -3.94848,-1.16859 0,-0.92481 0.388388,-1.03334 4.177729,-1.16734 6.812149,-0.2409 6.253619,-2.61164 6.253619,26.54403 0,26.15624 -0.0254,26.44113 -2.401453,26.94198 -0.498323,0.10505 -13.728974,0.13552 -29.401439,0.0677 z M 55.153754,62.30077 c 0.199814,-14.37005 0.284299,-27.15973 0.187748,-28.42149 l -0.17554,-2.29411 -5.851732,0 -5.851732,0 -0.159452,1.65686 -0.159452,1.65686 5.066265,0 c 3.834844,0 5.131666,0.17077 5.335363,0.70258 0.53253,1.39037 -0.851858,1.84643 -5.604877,1.84643 l -4.73227,0 0,25.49012 0,25.49013 5.791196,0 5.791191,0 0.363292,-26.12738 z m -9.891797,21.81639 c -1.105873,-1.335 -0.04014,-1.80664 4.082303,-1.80664 3.625383,0 4.04074,0.0992 4.04074,0.96506 0,1.25239 -0.95429,1.58395 -4.558928,1.58395 -1.961273,0 -3.155149,-0.24867 -3.564115,-0.74237 z m 0.205969,-4.10075 c -0.97775,-0.75698 -0.97775,-0.77243 0,-1.52941 1.755483,-1.35909 7.917074,-0.75448 7.917074,0.77686 0,0.4941 -0.362196,1.03761 -0.804889,1.20781 -1.575408,0.60567 -6.117346,0.31494 -7.112185,-0.45526 z M 45.043479,61.11202 c -0.402257,-1.05023 -0.402257,-14.16045 0,-15.21069 0.242032,-0.63191 1.100838,-0.80639 3.969001,-0.80639 2.168308,0 3.90901,0.24934 4.270751,0.61176 0.683731,0.68502 0.762667,3.89046 0.276813,11.24114 l -0.328536,4.97058 -3.939582,0 c -3.122981,0 -4.003606,-0.16715 -4.248447,-0.8064 z m 5.79729,-7.60534 0,-5.86273 -1.780962,0 -1.780962,0 0,5.86273 0,5.86273 1.780962,0 1.780962,0 0,-5.86273 z m 26.968853,7.39213 0,-27.52933 -3.816347,0 -3.816347,0 0,1.75887 0,1.75887 2.925866,0.15289 c 2.535768,0.1325 2.925866,0.28883 2.925866,1.17249 0,0.88367 -0.390098,1.03999 -2.925866,1.1725 l -2.925866,0.15289 0,24.44508 0,24.44508 3.816347,0 3.816347,0 0,-27.52934 z M 72.0427,84.51966 c -0.186579,-0.18692 -0.339233,-0.76045 -0.339233,-1.27451 0,-0.7482 0.399998,-0.93463 2.005351,-0.93463 2.220108,0 2.984566,0.67472 2.046921,1.80664 -0.624965,0.75444 -3.094554,1.02216 -3.713039,0.4025 z m 0.296825,-4.07618 c -0.349834,-0.14142 -0.636058,-0.69684 -0.636058,-1.23426 0,-0.79767 0.368295,-0.97712 2.005351,-0.97712 2.220108,0 2.984566,0.67472 2.046921,1.80664 -0.603573,0.72862 -2.159161,0.91293 -3.416214,0.40474 z M 71.896828,55.0605 c -0.436744,-1.14027 0.232083,-1.80872 1.809747,-1.80872 1.541877,0 2.871704,1.14823 2.335861,2.01688 -0.504992,0.81862 -3.81601,0.65237 -4.145608,-0.20816 z m -0.01058,-4.10608 c -0.467463,-1.22048 0.474445,-1.87746 2.423969,-1.69075 1.324466,0.12685 1.718455,0.39835 1.718455,1.18419 0,0.81062 -0.391954,1.05209 -1.912264,1.17807 -1.398538,0.1159 -1.997662,-0.0645 -2.23016,-0.67151 z m 0,-4.07843 c -0.467463,-1.22047 0.474445,-1.87745 2.423969,-1.69074 1.324458,0.12685 1.718447,0.39835 1.718447,1.18419 0,0.81062 -0.391954,1.05209 -1.912265,1.17807 -1.398537,0.11591 -1.997665,-0.0645 -2.230159,-0.67152 z M 35.340475,84.17216 c -1.357939,-0.99481 -0.523782,-1.86164 1.791477,-1.86164 1.628345,0 2.005356,0.18143 2.005356,0.96506 0,1.56721 -2.179031,2.08177 -3.796833,0.89658 z m 24.489918,0.3475 c -0.186579,-0.18692 -0.339233,-0.76045 -0.339233,-1.27451 0,-0.80057 0.430097,-0.93463 2.998635,-0.93463 3.063519,0 4.189926,0.75084 2.965988,1.97708 -0.612028,0.61318 -5.061771,0.79674 -5.62539,0.23206 z m 22.243365,-0.40042 c -0.507397,-1.32475 0.325881,-1.80872 3.114139,-1.80872 2.896199,0 3.793633,0.58318 2.780157,1.80664 -0.841387,1.01571 -5.505428,1.01736 -5.894296,0.002 z m -21.94654,-3.67576 c -0.349834,-0.14142 -0.636058,-0.69684 -0.636058,-1.23426 0,-0.85242 0.382689,-0.97712 2.998635,-0.97712 2.182356,0 3.077559,0.20604 3.288552,0.75693 0.523448,1.36662 -3.381996,2.37178 -5.651129,1.45445 z m 22.389236,0 c -0.349834,-0.14142 -0.636058,-0.69684 -0.636058,-1.23426 0,-0.85331 0.383044,-0.97712 3.023044,-0.97712 3.160241,0 4.101517,0.5549 3.064614,1.80664 -0.592806,0.71563 -4.048039,0.97215 -5.4516,0.40474 z M 34.89692,79.93144 c -0.59583,-0.59695 -0.368042,-1.13822 0.725859,-1.72475 1.497087,-0.80273 3.514529,-0.19728 3.514529,1.05472 0,0.83103 -0.345487,1.0099 -1.95058,1.0099 -1.072814,0 -2.103228,-0.15294 -2.289808,-0.33987 z M 81.880396,59.94475 c 0,-3.36765 0.208318,-6.25199 0.462928,-6.40964 0.254607,-0.15765 0.834093,-0.14395 1.287744,0.0305 0.706926,0.27178 0.804396,1.16458 0.681976,6.24673 -0.13758,5.71118 -0.185017,5.93563 -1.287743,6.09254 -1.132786,0.16118 -1.144905,0.0981 -1.144905,-5.9601 z m 4.305483,5.41975 c -0.149084,-0.38923 -0.205639,-3.21647 -0.125677,-6.28276 0.135256,-5.18664 0.216288,-5.57506 1.16308,-5.57506 0.961089,0 1.017693,0.33987 1.017693,6.11064 0,5.41837 -0.101057,6.13015 -0.89202,6.28276 -0.490613,0.0947 -1.013996,-0.14634 -1.163076,-0.53558 z M 59.60565,53.65879 59.745583,45.34984 62.6555,45.19742 c 3.606031,-0.18887 3.541338,-0.36944 3.342538,9.32886 l -0.1463,7.13724 -3.19301,0.15211 -3.193015,0.1521 0.139937,-8.30894 z m 3.95628,-0.15211 c 0,-4.87145 -0.129055,-5.86273 -0.763269,-5.86273 -0.634218,0 -0.76327,0.99128 -0.76327,5.86273 0,4.87145 0.129052,5.86273 0.76327,5.86273 0.634214,0 0.763269,-0.99128 0.763269,-5.86273 z m -28.704195,5.93668 c -0.729266,-1.1822 0.338257,-2.16698 2.181721,-2.01262 1.452842,0.12165 1.843428,0.37039 1.843428,1.17396 0,0.80541 -0.390936,1.05226 -1.8609,1.17501 -1.023497,0.0855 -1.997409,-0.0659 -2.164249,-0.33635 z m 0,-4.07842 c -0.729266,-1.1822 0.338257,-2.16698 2.181721,-2.01262 1.452842,0.12165 1.843428,0.37039 1.843428,1.17396 0,0.80541 -0.390936,1.05226 -1.8609,1.17501 -1.023497,0.0855 -1.997409,-0.0659 -2.164249,-0.33635 z"
     style="fill:#de5c0f;fill-opacity:1" />
  <path
     id="path8070"
     d=""
     style="fill:#de5c0f;fill-opacity:1" />
</svg>
