<?xml version="1.0" encoding="UTF-8" standalone="no"?>
<svg
   xmlns:dc="http://purl.org/dc/elements/1.1/"
   xmlns:cc="http://creativecommons.org/ns#"
   xmlns:rdf="http://www.w3.org/1999/02/22-rdf-syntax-ns#"
   xmlns:svg="http://www.w3.org/2000/svg"
   xmlns="http://www.w3.org/2000/svg"
   id="svg2"
   version="1.1"
   width="28"
   height="36"
   viewBox="0 0 28 36">
  <metadata
     id="metadata8">
    <rdf:RDF>
      <cc:Work
         rdf:about="">
        <dc:format>image/svg+xml</dc:format>
        <dc:type
           rdf:resource="http://purl.org/dc/dcmitype/StillImage" />
        <dc:title></dc:title>
      </cc:Work>
    </rdf:RDF>
  </metadata>
  <defs
     id="defs6" />
  <path
     style="fill:#02a8f3;fill-opacity:1"
     d="m 0,22.795301 0,-13.2046898 5.06,0 c 5.343205,0 5.54,0.033 5.54,0.9289898 0,0.94197 -0.574383,1.07172 -4.7445008,1.07172 l -3.8554992,0 0,11.20398 0,11.20399 12,0 12,0 0,-11.20399 0,-11.20398 -3.855498,0 c -4.170119,0 -4.744502,-0.12975 -4.744502,-1.07172 0,-0.8959898 0.196795,-0.9289898 5.54,-0.9289898 l 5.06,0 0,13.2046898 0,13.2047 -14,0 -14,0 0,-13.2047 z m 10.15,-1.4223 c -3.3576577,-3.22251 -3.7205825,-3.72895 -3.1100001,-4.33975 0.585592,-0.5858 1.187112,-0.24912 3.5283131,1.97484 L 12.9,21.223011 13,10.797791 c 0.08609,-8.9748898 0.141736,-10.45159975 0.4,-10.61484975 0.444411,-0.2809 0.931214,-0.23598 1.285715,0.11865 C 14.963294,0.57927125 15,1.8197712 15,10.923181 l 0,10.3072 2.35,-2.21475 c 1.750879,-1.65011 2.483976,-2.21573 2.875512,-2.21861 0.658704,-0.005 1.054595,0.45271 0.903264,1.04392 -0.181133,0.70764 -6.598431,6.75583 -7.163122,6.75112 -0.326525,-0.003 -1.466571,-0.96452 -3.815654,-3.21906 z"
     id="path8070" />
</svg>
