<?xml version="1.0" encoding="UTF-8" standalone="no"?>
<svg
   xmlns:dc="http://purl.org/dc/elements/1.1/"
   xmlns:cc="http://creativecommons.org/ns#"
   xmlns:rdf="http://www.w3.org/1999/02/22-rdf-syntax-ns#"
   xmlns:svg="http://www.w3.org/2000/svg"
   xmlns="http://www.w3.org/2000/svg"
   viewBox="0 0 120 120"
   height="120"
   width="120"
   version="1.1"
   id="svg2">
  <metadata
     id="metadata8">
    <rdf:RDF>
      <cc:Work
         rdf:about="">
        <dc:format>image/svg+xml</dc:format>
        <dc:type
           rdf:resource="http://purl.org/dc/dcmitype/StillImage" />
        <dc:title></dc:title>
      </cc:Work>
    </rdf:RDF>
  </metadata>
  <defs
     id="defs6" />
  <path
     id="path8070"
     d="M 52.11288,119.47676 C 43.719008,118.28131 35.255825,115.22424 28.149599,110.82073 22.128132,107.08942 13.734004,98.82296 9.8237324,92.77357 -3.2979362,72.4737 -3.272844,47.02031 9.8888404,26.72811 12.928345,22.04191 21.954839,12.89539 26.416143,9.98103 37.145497,2.97207 47.145819,0 59.999997,0 c 12.854178,0 22.854506,2.97207 33.583856,9.98103 4.461301,2.91436 13.487797,12.06088 16.527297,16.74708 13.16169,20.2922 13.18678,45.74559 0.0651,66.04546 -3.91027,6.04939 -12.304396,14.31585 -18.325859,18.04716 -11.79439,7.30861 -26.58152,10.52969 -39.737521,8.65603 z M 69.196771,115.1327 C 89.183334,111.69592 105.5808,98.08541 112.44847,79.23219 119.91919,58.72346 115.12326,36.36709 99.921214,20.83595 92.396332,13.14816 84.075351,8.34512 73.267538,5.45087 68.974479,4.30122 67.398911,4.14629 59.999997,4.14629 c -7.398914,0 -8.974481,0.15493 -13.267544,1.30458 C 35.924644,8.34512 27.603668,13.14816 20.078784,20.83595 0.62791873,40.70788 -1.3124221,71.41065 15.47066,93.75205 27.845663,110.22547 48.932721,118.6172 69.196771,115.1327 Z M 19.673929,82.4689 c -1.088532,-0.285 -1.180946,-2.11792 -0.127211,-2.52303 0.530869,-0.2041 0.763269,-1.03396 0.763269,-2.7255 0,-1.53989 0.279996,-2.66486 0.76327,-3.06669 1.041531,-0.86602 1.015311,-4.38224 -0.0357,-4.78631 -0.479231,-0.18424 -0.733769,-0.7671 -0.636058,-1.45649 0.151978,-1.07225 0.444463,-1.15927 4.360886,-1.29741 l 4.197978,-0.14806 0,-7.37152 0,-7.37152 -1.292693,0 c -1.290899,0 -1.29249,-0.006 -1.144905,-4.16332 l 0.14779,-4.16332 2.544231,-0.84924 2.544232,-0.84923 0.130154,-3.27174 c 0.235002,-5.90742 -0.131237,-5.56584 5.967795,-5.56584 5.865299,0 6.368784,0.27481 6.368784,3.47629 l 0,1.50411 8.014329,-2.52406 8.014329,-2.52406 6.360579,2.03043 c 3.498318,1.11673 11.111929,3.54938 16.919139,5.40587 l 10.558561,3.37544 0,4.00479 c 0,4.13894 -0.459692,5.00184 -2.289809,4.29824 -0.656936,-0.25257 -0.763269,0.74112 -0.763269,7.13261 l 0,7.42607 4.14435,0.14806 c 3.349644,0.11968 4.252204,0.32487 4.706824,1.07008 0.444136,0.72803 0.375136,1.06163 -0.328,1.58561 -1.14882,0.85612 -1.24377,4.6396 -0.12721,5.06888 0.52354,0.20127 0.763266,1.02118 0.763266,2.61046 0,1.27438 0.26512,2.74235 0.58915,3.26219 0.32403,0.51984 0.44572,1.31967 0.2704,1.77739 -0.29138,0.76074 -3.763016,0.82716 -40.40638,0.7731 C 38.603827,82.72868 20.163685,82.59713 19.673918,82.4689 Z m 77.471845,-3.90556 c 0,-1.1463 -0.20163,-1.21251 -4.657785,-1.52941 -2.561785,-0.18219 -19.162895,-0.33124 -36.891356,-0.33124 l -32.233568,0 0,1.52941 0,1.52941 36.891355,0 36.891354,0 0,-1.19817 z m -68.1854,-6.70377 0,-2.29411 -2.035385,0 -2.035385,0 0,2.29411 0,2.29411 2.035385,0 2.035385,0 0,-2.29411 z m 7.534744,-0.12745 0.156468,-2.16666 -2.319065,0 -2.319069,0 0,1.95424 c 0,2.43597 0.283399,2.7199 2.526047,2.53079 1.725014,-0.14547 1.805595,-0.24099 1.955619,-2.31837 z m 14.854492,0.12745 0,-2.29411 -5.851732,0 -5.851732,0 0,2.29411 0,2.29411 5.851732,0 5.851732,0 0,-2.29411 z m 14.756543,0 0,-2.29411 -5.851733,0 -5.851732,0 0,2.29411 0,2.29411 5.851732,0 5.851733,0 0,-2.29411 z m 14.756542,0.0545 c 0,-1.52044 -0.245084,-2.33379 -0.763269,-2.53302 -0.419798,-0.16139 -0.76327,-0.61666 -0.76327,-1.01172 0,-0.39505 0.343472,-1.00387 0.76327,-1.35293 0.596624,-0.49608 0.763269,-1.90105 0.763269,-6.43495 l 0,-5.80031 -5.851732,0 -5.851732,0 0,5.69514 c 0,4.58397 0.164304,5.87703 0.842136,6.62743 0.783611,0.86751 0.783611,0.99708 0,1.8646 -0.500298,0.55386 -0.842136,1.79548 -0.842136,3.05881 l 0,2.12652 5.851732,0 5.851732,0 0,-2.23957 z m 7.378272,-0.0545 c 0,-2.03462 -0.0051,-2.03956 -2.162597,-2.19598 l -2.162597,-0.15676 0,2.35274 0,2.35274 2.162597,-0.15677 c 2.15772,-0.15641 2.162597,-0.16136 2.162597,-2.19597 z m 7.378271,0 0,-2.29411 -2.289808,0 -2.289809,0 0,1.95424 c 0,1.07483 0.152654,2.10718 0.339234,2.29411 0.186571,0.18693 1.216985,0.33987 2.289808,0.33987 l 1.950575,0 0,-2.29411 z M 66.106153,59.64224 c 0,-6.26487 0.08596,-6.91048 0.984239,-7.39214 0.541331,-0.29025 4.105588,-0.52773 7.920571,-0.52773 3.814983,0 7.379236,0.23748 7.920567,0.52773 0.898277,0.48166 0.984243,1.12727 0.984243,7.39214 l 0,6.8644 2.289808,0 2.289809,0 0,-7.86097 0,-7.86097 -2.41702,-0.77854 C 70.938324,45.12939 60.859052,42.03829 60.129102,42.04807 c -0.490809,0.007 -6.960366,1.9321 -14.376801,4.27895 l -13.484426,4.267 -0.140132,7.95631 -0.140132,7.95631 17.05927,0 17.059272,0 0,-6.8644 z m -29.157661,5.01135 c -0.636616,-0.63782 -0.408404,-11.65461 0.255192,-12.31946 0.697405,-0.69871 9.422152,-0.84953 10.473688,-0.18106 0.485554,0.30868 0.61601,1.97312 0.508847,6.49218 l -0.14411,6.07708 -5.369097,0.14368 c -2.953006,0.079 -5.529038,-0.0166 -5.72452,-0.21242 z m 8.294963,-6.04889 0,-3.82352 -2.798655,0 -2.798654,0 0,3.82352 0,3.82352 2.798654,0 2.798655,0 0,-3.82352 z m 4.935035,6.04889 c -0.636611,-0.63782 -0.408404,-11.65461 0.255197,-12.31946 0.697404,-0.69871 9.422152,-0.84953 10.473689,-0.18106 0.485553,0.30868 0.616009,1.97312 0.508846,6.49218 l -0.144109,6.07708 -5.369102,0.14368 c -2.953002,0.079 -5.529038,-0.0166 -5.724521,-0.21242 z m 8.294968,-6.04889 0,-3.82352 -2.798654,0 -2.798655,0 0,3.82352 0,3.82352 2.798655,0 2.798654,0 0,-3.82352 z M 44.651455,43.56553 C 52.697373,41.042 59.710887,38.9773 60.237038,38.9773 c 0.526156,0 7.453446,2.0647 15.393981,4.58823 7.940534,2.52352 14.655872,4.58822 14.922967,4.58822 0.2671,0 0.485635,-0.55574 0.485635,-1.23497 0,-0.94659 -0.386165,-1.35659 -1.65375,-1.7558 -0.909565,-0.28645 -7.841252,-2.48159 -15.40375,-4.8781 L 60.232117,35.92761 44.853194,40.76617 c -8.458409,2.66121 -15.494552,4.83857 -15.635873,4.83857 -0.141321,0 -0.256947,0.57353 -0.256947,1.2745 0,0.70098 0.238983,1.27451 0.531073,1.27451 0.29209,0 7.114094,-2.0647 15.160008,-4.58822 z m -6.194934,-3.91662 c 2.437006,-0.76965 2.716163,-1.00542 2.716163,-2.29411 0,-1.41562 -0.04398,-1.43631 -3.053076,-1.43631 l -3.053078,0 0,2.29411 c 0,1.26176 0.151612,2.29411 0.336913,2.29411 0.185301,0 1.559186,-0.38601 3.053078,-0.8578 z"
     style="fill:#de5c0f;fill-opacity:1" />
</svg>
