<?xml version="1.0" encoding="UTF-8" standalone="no"?>
<svg
   xmlns:dc="http://purl.org/dc/elements/1.1/"
   xmlns:cc="http://creativecommons.org/ns#"
   xmlns:rdf="http://www.w3.org/1999/02/22-rdf-syntax-ns#"
   xmlns:svg="http://www.w3.org/2000/svg"
   xmlns="http://www.w3.org/2000/svg"
   viewBox="0 0 65 65"
   height="65"
   width="65"
   version="1.1"
   id="svg2">
  <metadata
     id="metadata8">
    <rdf:RDF>
      <cc:Work
         rdf:about="">
        <dc:format>image/svg+xml</dc:format>
        <dc:type
           rdf:resource="http://purl.org/dc/dcmitype/StillImage" />
        <dc:title></dc:title>
      </cc:Work>
    </rdf:RDF>
  </metadata>
  <defs
     id="defs6" />
  <path
     id="path8070"
     d="M 28.227812,64.716582 C 23.681131,64.069042 19.096906,62.413132 15.2477,60.027892 11.986072,58.006772 7.4392526,53.529102 5.3211887,50.252352 -1.7863822,39.256588 -1.7727906,25.469335 5.3564555,14.477726 7.002854,11.939368 11.892205,6.985003 14.308745,5.406391 20.120479,1.609871 25.53732,0 32.5,0 c 6.962681,0 12.379525,1.609871 18.191257,5.406391 2.416538,1.578612 7.30589,6.532977 8.952286,9.071335 7.129249,10.991609 7.14284,24.778862 0.03526,35.774626 -2.118063,3.27675 -6.664882,7.75442 -9.926508,9.77554 -6.388628,3.95883 -14.398324,5.70359 -21.524492,4.68869 z m 9.253775,-2.35304 C 48.307642,60.501962 57.189603,53.129602 60.909592,42.917437 64.956232,31.808541 62.358436,19.69884 54.123994,11.286139 50.048016,7.12192 45.540818,4.520273 39.686585,2.952554 37.361178,2.329827 36.507746,2.245907 32.5,2.245907 c -4.007745,0 -4.861177,0.08392 -7.186586,0.706647 C 19.459183,4.520273 14.951988,7.12192 10.876009,11.286139 0.34012265,22.050102 -0.71089537,38.680769 8.3799413,50.782362 c 6.7031267,8.9231 18.1252837,13.46862 29.1016457,11.58118 z M 10.656712,44.670655 c -0.589621,-0.154375 -0.639679,-1.147207 -0.06891,-1.366642 0.287554,-0.110554 0.413438,-0.560061 0.413438,-1.476312 0,-0.834107 0.151664,-1.443466 0.413438,-1.661124 0.564162,-0.469094 0.54996,-2.373713 -0.01934,-2.592585 -0.259583,-0.0998 -0.397458,-0.415512 -0.344531,-0.788932 0.08232,-0.580802 0.24075,-0.627938 2.362146,-0.702763 l 2.273905,-0.0802 0,-3.992906 0,-3.992907 -0.700209,0 c -0.699237,0 -0.700098,-0.0033 -0.620156,-2.255132 l 0.08005,-2.255132 1.378126,-0.460005 1.378125,-0.459999 0.0705,-1.772193 c 0.127292,-3.199852 -0.07109,-3.01483 3.232555,-3.01483 3.177038,0 3.449759,0.148856 3.449759,1.882991 l 0,0.814726 4.341095,-1.367199 4.341095,-1.367199 3.445314,1.099816 c 1.894922,0.604895 6.018962,1.922581 9.164534,2.928179 l 5.719221,1.828364 0,2.169261 c 0,2.241926 -0.249,2.70933 -1.240314,2.328214 -0.35584,-0.136809 -0.413437,0.40144 -0.413437,3.863497 l 0,4.022454 2.244856,0.0802 c 1.814391,0.06483 2.303278,0.175971 2.54953,0.579626 0.240574,0.39435 0.203199,0.57505 -0.177666,0.858872 -0.622278,0.463732 -0.673709,2.513117 -0.06891,2.745644 0.283584,0.109021 0.413436,0.553139 0.413436,1.413999 0,0.690289 0.143607,1.48544 0.319123,1.76702 0.175516,0.28158 0.241432,0.714821 0.146467,0.962752 -0.157831,0.412068 -2.038301,0.448045 -21.886791,0.418763 -11.942753,-0.0176 -21.931164,-0.08886 -22.196455,-0.158318 z m 41.963919,-2.115512 c 0,-0.620913 -0.109216,-0.656776 -2.522967,-0.828431 -1.387634,-0.09869 -10.379902,-0.179421 -19.982819,-0.179421 l -17.459851,0 0,0.82843 0,0.828431 19.982819,0 19.982818,0 0,-0.649009 z m -36.933761,-3.631209 0,-1.242643 -1.1025,0 -1.1025,0 0,1.242643 0,1.242643 1.1025,0 1.1025,0 0,-1.242643 z m 4.08132,-0.06903 0.08475,-1.173608 -1.256161,0 -1.256162,0 0,1.058547 c 0,1.319484 0.153508,1.473279 1.368275,1.370844 0.934383,-0.0788 0.978031,-0.130536 1.059294,-1.255783 z m 8.046184,0.06903 0,-1.242643 -3.169689,0 -3.169688,0 0,1.242643 0,1.242643 3.169688,0 3.169689,0 0,-1.242643 z m 7.993128,0 0,-1.242643 -3.169689,0 -3.169689,0 0,1.242643 0,1.242643 3.169689,0 3.169689,0 0,-1.242643 z m 7.993127,0.02952 c 0,-0.823572 -0.132754,-1.264136 -0.413437,-1.372053 -0.227391,-0.08742 -0.413438,-0.334024 -0.413438,-0.548015 0,-0.213985 0.186047,-0.543763 0.413438,-0.732837 0.323171,-0.26871 0.413437,-1.029735 0.413437,-3.485598 l 0,-3.141834 -3.169688,0 -3.169689,0 0,3.084867 c 0,2.482984 0.089,3.183392 0.456157,3.589858 0.424456,0.469901 0.424456,0.540085 0,1.009992 -0.270994,0.300007 -0.456157,0.972552 -0.456157,1.656855 l 0,1.151865 3.169689,0 3.169688,0 0,-1.2131 z m 3.996564,-0.02952 c 0,-1.102086 -0.0028,-1.104762 -1.171406,-1.189489 l -1.171407,-0.08491 0,1.274401 0,1.274401 1.171407,-0.08492 c 1.168765,-0.08472 1.171406,-0.0874 1.171406,-1.189484 z m 3.996564,0 0,-1.242643 -1.240313,0 -1.240313,0 0,1.058547 c 0,0.582199 0.08269,1.141389 0.183752,1.242643 0.101059,0.101254 0.6592,0.184096 1.240313,0.184096 l 1.056561,0 0,-1.242643 z m -15.986255,-6.61772 c 0,-3.393472 0.04656,-3.743177 0.533129,-4.004076 0.293221,-0.157219 2.22386,-0.285854 4.29031,-0.285854 2.066449,0 3.997086,0.128635 4.290307,0.285854 0.486567,0.260899 0.533132,0.610604 0.533132,4.004076 l 0,3.718216 1.240313,0 1.240313,0 0,-4.258025 0,-4.258026 -1.309219,-0.421709 c -8.200859,-2.641584 -13.660465,-4.31593 -14.055855,-4.310632 -0.265855,0.0038 -3.770198,1.046554 -7.787434,2.317765 l -7.304065,2.311291 -0.0759,4.309668 -0.07591,4.309668 9.240438,0 9.24044,0 0,-3.718216 z m -15.793734,2.714481 c -0.344834,-0.345486 -0.221219,-6.312914 0.138229,-6.673041 0.377761,-0.378468 5.103666,-0.460162 5.673248,-0.09807 0.263008,0.167201 0.333672,1.068773 0.275625,3.516597 l -0.07806,3.291752 -2.908261,0.07783 c -1.599545,0.04279 -2.994896,-0.009 -3.100782,-0.115061 z m 4.493105,-3.276482 0,-2.071074 -1.515938,0 -1.515938,0 0,2.071074 0,2.071073 1.515938,0 1.515938,0 0,-2.071073 z m 2.673144,3.276482 c -0.344831,-0.345486 -0.221219,-6.312914 0.138232,-6.673041 0.37776,-0.378468 5.103666,-0.460162 5.673248,-0.09807 0.263008,0.167201 0.333672,1.068773 0.275625,3.516597 l -0.07806,3.291752 -2.908264,0.07783 c -1.599542,0.04279 -2.994895,-0.009 -3.100782,-0.115061 z m 4.493108,-3.276482 0,-2.071074 -1.515938,0 -1.515938,0 0,2.071074 0,2.071073 1.515938,0 1.515938,0 0,-2.071073 z m -7.486919,-8.146218 c 4.358206,-1.366912 8.157193,-2.485291 8.442192,-2.485291 0.285001,0 4.037283,1.118379 8.338406,2.485291 4.301123,1.366907 7.938598,2.485286 8.083275,2.485286 0.144679,0 0.263052,-0.301026 0.263052,-0.668942 0,-0.512736 -0.209173,-0.734819 -0.895781,-0.951058 -0.492681,-0.155161 -4.247345,-1.344195 -8.343699,-2.642304 l -7.447919,-2.360188 -8.33025,2.620886 c -4.581639,1.441489 -8.392883,2.620893 -8.469432,2.620893 -0.07655,0 -0.13918,0.310662 -0.13918,0.690354 0,0.379697 0.129449,0.690359 0.287665,0.690359 0.158215,0 3.853468,-1.118379 8.211671,-2.485286 z m -3.355589,-2.121502 c 1.320045,-0.416894 1.471255,-0.544603 1.471255,-1.242643 0,-0.766794 -0.02382,-0.778001 -1.65375,-0.778001 l -1.65375,0 0,1.242643 c 0,0.683453 0.08212,1.242643 0.182494,1.242643 0.100371,0 0.844559,-0.209089 1.653751,-0.464642 z"
     style="fill:#ffffff;fill-opacity:1" />
</svg>
