<?xml version="1.0" encoding="UTF-8" standalone="no"?>
<svg
   xmlns:dc="http://purl.org/dc/elements/1.1/"
   xmlns:cc="http://creativecommons.org/ns#"
   xmlns:rdf="http://www.w3.org/1999/02/22-rdf-syntax-ns#"
   xmlns:svg="http://www.w3.org/2000/svg"
   xmlns="http://www.w3.org/2000/svg"
   viewBox="0 0 119.99999 119.99999"
   height="119.99999"
   width="119.99999"
   version="1.1"
   id="svg2">
  <metadata
     id="metadata8">
    <rdf:RDF>
      <cc:Work
         rdf:about="">
        <dc:format>image/svg+xml</dc:format>
        <dc:type
           rdf:resource="http://purl.org/dc/dcmitype/StillImage" />
        <dc:title></dc:title>
      </cc:Work>
    </rdf:RDF>
  </metadata>
  <defs
     id="defs6" />
  <path
     id="path8070"
     d="M 52.112627,119.47685 C 43.718485,118.28163 35.255026,115.22514 28.148575,110.82246 22.126915,107.09185 13.732517,98.82694 9.8221188,92.77869 -3.2911257,72.49632 -3.2727455,46.94777 9.8696188,26.75959 12.804279,22.25162 21.894117,12.96588 25.984164,10.29776 37.283361,2.92678 46.951201,0 59.999995,0 73.048789,0 82.71663,2.92678 94.015831,10.29776 c 4.090042,2.66812 13.179879,11.95386 16.114549,16.46183 13.14236,20.18818 13.16074,45.73673 0.0475,66.0191 -3.9104,6.04825 -12.304797,14.31316 -18.326453,18.04377 -11.794769,7.30723 -26.582375,10.52771 -39.738799,8.65439 z m 17.084441,-4.34323 C 89.184273,111.69748 105.58227,98.08953 112.45015,79.23986 119.92112,58.73499 115.12503,36.38282 99.922493,20.8546 92.397374,13.16827 84.076126,8.36612 73.267965,5.47242 68.974768,4.32299 67.39915,4.16809 59.999998,4.16809 c -7.399152,0 -8.97477,0.1549 -13.267971,1.30433 -10.808156,2.8937 -19.1294,7.69585 -26.65453,15.38218 -19.45148743,19.86819 -21.3918906,50.56519 -4.608269,72.90239 12.375402,16.47032 33.463137,24.86048 53.72784,21.37663 z m -39.289204,-24.14194 -1.517542,-1.52006 0.157312,-17.8912 0.157311,-17.8912 1.653804,-1.47953 c 2.163297,-1.93532 2.224349,-3.53272 0.13502,-3.53272 l -1.518788,0 0.308696,-3.18566 c 0.169781,-1.75212 0.570004,-3.75909 0.889386,-4.45994 l 0.580694,-1.27426 16.615325,-0.13434 c 18.830923,-0.15225 18.228405,-0.27605 18.228405,3.74561 0,1.2453 0.265126,2.68943 0.589169,3.20916 0.834971,1.33921 0.184469,2.60914 -1.336493,2.60914 -1.763498,0 -1.663826,1.27829 0.238462,3.05824 l 1.526587,1.42841 0,18.16811 0,18.16811 -1.249029,1.25109 -1.249022,1.2511 -16.345882,0 -16.345872,0 -1.517543,-1.52005 z m 33.85416,-1.83472 c 0.169886,-0.44343 0.308875,-1.36091 0.308875,-2.03883 l 0,-1.23257 -16.538036,0 -16.538036,0 0,1.42717 c 0,0.78495 0.274786,1.70242 0.610636,2.03883 0.448413,0.44915 4.759905,0.61165 16.229159,0.61165 13.772633,0 15.655034,-0.0953 15.927402,-0.80625 z m 0.308875,-15.24951 0,-9.42957 -16.538036,0 -16.538036,0 0,9.42957 0,9.42957 16.538036,0 16.538036,0 0,-9.42957 z m -25.955528,5.24056 c -2.505045,-1.68575 -3.509174,-4.64949 -2.486836,-7.34004 0.428841,-1.1286 1.472245,-2.45253 2.456479,-3.11691 1.600494,-1.08036 2.23575,-1.15494 9.837397,-1.15494 l 8.126415,0 1.975588,1.97886 c 1.726237,1.72909 1.975584,2.27687 1.975584,4.33999 0,1.97715 -0.283074,2.67075 -1.740681,4.26504 l -1.740685,1.90392 -8.31289,0.16011 c -8.01146,0.15432 -8.377345,0.11675 -10.090371,-1.03603 z m 8.145335,-5.24056 0,-3.8228 -2.939952,0 c -4.606696,0 -6.656675,2.29594 -4.96892,5.56512 0.944565,1.82962 1.336487,1.99009 4.982912,2.04023 l 2.92596,0.0402 0,-3.8228 z m 9.945949,2.5717 c 1.699719,-1.70254 1.660968,-3.95712 -0.09175,-5.3381 -1.010284,-0.796 -2.076457,-1.0564 -4.325333,-1.0564 l -2.984549,0 0,3.8228 0,3.8228 3.076303,0 c 2.587721,0 3.274686,-0.19871 4.325333,-1.2511 z M 64.070899,58.3815 c 0,-2.60698 -0.212094,-3.72215 -0.799769,-4.20508 -2.231216,-1.83357 -2.762269,-2.54788 -2.762269,-3.71548 l 0,-1.27426 -12.975998,0 -12.975997,0 0,1.78397 c 0,0.98119 -0.239397,1.78397 -0.531993,1.78397 -0.292596,0 -1.094055,0.563 -1.78102,1.25111 -1.042838,1.04457 -1.249026,1.74573 -1.249026,4.24755 0,1.64805 0.152659,3.14937 0.339245,3.33626 0.186582,0.18689 7.628698,0.3398 16.538031,0.3398 l 16.198796,0 0,-3.54784 z M 50.436376,52.88362 c -4.647719,-0.13166 -5.805716,-0.31567 -6.053288,-0.9619 -0.5264,-1.37406 0.911626,-1.69977 7.540018,-1.70782 5.289627,-0.006 6.545765,0.13712 7.104867,0.81191 0.577054,0.69646 0.533544,0.92638 -0.289385,1.52912 -0.53271,0.39017 -1.325522,0.66037 -1.761808,0.60045 -0.436291,-0.0599 -3.379471,-0.18222 -6.540404,-0.27176 z M 36.247768,51.93863 c -0.423447,-1.10532 0.696275,-1.71692 3.143292,-1.71692 2.447019,0 3.566741,0.6116 3.143298,1.71692 -0.234794,0.61287 -1.017241,0.81599 -3.143298,0.81599 -2.126051,0 -2.908499,-0.20312 -3.143292,-0.81599 z m 26.805406,-7.59416 0,-2.29368 -2.035451,0 c -1.807639,0 -2.03545,0.13651 -2.03545,1.21973 0,1.37877 -1.113408,2.04849 -1.973443,1.18703 -0.313981,-0.3145 -0.570871,-0.98468 -0.570871,-1.48929 0,-0.73058 -0.414625,-0.91747 -2.03545,-0.91747 -1.813192,0 -2.035451,0.1345 -2.035451,1.23179 0,0.67748 -0.286237,1.3318 -0.636078,1.45403 -1.121737,0.39194 -1.908235,-0.21233 -1.908235,-1.46609 0,-1.08322 -0.227812,-1.21973 -2.035451,-1.21973 -1.620821,0 -2.035451,0.18689 -2.035451,0.91747 0,0.50461 -0.25689,1.17479 -0.57087,1.48929 -0.860035,0.86146 -1.973443,0.19174 -1.973443,-1.18703 0,-1.08322 -0.227812,-1.21973 -2.035451,-1.21973 -1.620821,0 -2.03545,0.18689 -2.03545,0.91747 0,0.50461 -0.256889,1.17479 -0.57087,1.48929 -0.860034,0.86146 -1.973442,0.19174 -1.973442,-1.18703 0,-1.08322 -0.227812,-1.21973 -2.035451,-1.21973 -2.033647,0 -2.035451,0.002 -2.035451,2.02805 l 0,2.02805 10.050037,0.14961 c 5.527522,0.0823 12.397164,0.20183 15.26588,0.26563 l 5.215842,0.11602 0,-2.29368 z m 4.671587,47.02043 c 0.16052,-1.13212 0.284922,-1.15011 9.693716,-1.40169 l 9.531111,-0.25485 1.409436,-1.41328 1.40944,-1.41328 0,-26.28012 0,-26.28011 -1.661836,-1.48731 -1.661827,-1.48731 -14.979476,0 c -9.686665,0 -15.407726,0.19545 -16.191481,0.55314 -1.390229,0.63448 -2.906786,2.95128 -2.906786,4.44061 0,1.07531 -1.267284,1.85312 -2.139523,1.31315 -0.791978,-0.49028 -0.134947,-4.02933 1.06016,-5.71049 2.139816,-3.01008 2.993835,-3.14494 19.914898,-3.14494 14.863231,0 15.439842,0.037 17.351602,1.11324 1.311343,0.73824 2.347941,1.87981 3.07726,3.38887 1.096884,2.26962 1.098923,2.3442 0.773874,28.24507 -0.308102,24.55036 -0.380178,26.05723 -1.319021,27.57581 -1.942911,3.14264 -2.949018,3.39033 -13.771668,3.39033 l -9.752483,0 0.162604,-1.14684 z m 2.160138,-3.61055 c -0.143226,-0.37386 -0.193282,-2.61019 -0.111241,-4.96964 0.139359,-4.00798 0.2244,-4.3006 1.294103,-4.45278 1.122311,-0.15966 1.144941,-0.0614 1.144941,4.96964 0,4.81915 -0.06311,5.13252 -1.033696,5.13252 -0.568534,0 -1.150884,-0.30589 -1.294107,-0.67974 z m 9.074589,-1.59588 c -2.013899,-0.89098 -3.472776,-3.6414 -2.978267,-5.61494 0.44041,-1.75764 2.373999,-3.69444 4.128724,-4.13558 1.902597,-0.47831 4.587482,0.91416 5.620412,2.91495 2.167328,4.1981 -2.37261,8.78141 -6.770869,6.83557 z m 3.93933,-2.82145 c 0.559749,-0.56067 1.017725,-1.36346 1.017725,-1.78397 0,-0.42051 -0.457976,-1.2233 -1.017725,-1.78397 -0.559749,-0.56068 -1.361208,-1.01942 -1.78102,-1.01942 -0.419811,0 -1.22127,0.45874 -1.781019,1.01942 -0.559749,0.56067 -1.017725,1.36346 -1.017725,1.78397 0,0.42051 0.457976,1.2233 1.017725,1.78397 0.559749,0.56068 1.361208,1.01942 1.781019,1.01942 0.419812,0 1.221271,-0.45874 1.78102,-1.01942 z M 70.239259,76.05936 C 69.629141,75.44823 69.380551,35.2399 69.977264,33.68232 c 0.366735,-0.95729 2.045099,-1.07983 2.316249,-0.16912 0.104333,0.35043 0.111006,10.08088 0.01482,21.62323 -0.138532,16.62532 -0.31236,21.03893 -0.836541,21.24041 -0.363915,0.13989 -0.918555,-0.003 -1.232531,-0.31748 z m 7.723098,-4.19232 c -1.365694,-0.95816 -2.339066,-3.80389 -1.900195,-5.55537 0.484039,-1.93178 3.017768,-3.87262 5.055636,-3.87262 2.23946,0 4.697845,2.06676 5.116358,4.30131 0.363035,1.93835 -0.747072,4.54119 -2.289426,5.36801 -1.439227,0.77153 -4.727798,0.63886 -5.982373,-0.24133 z M 83.1169,69.28368 c 1.043189,-1.04492 1.009506,-1.88473 -0.132227,-3.29706 -1.936845,-2.39586 -5.613207,0.27983 -3.926763,2.85794 0.936503,1.43165 2.860317,1.63978 4.05899,0.43912 z M 77.702565,57.39415 c -1.365666,-1.22225 -1.650267,-1.84656 -1.650267,-3.62011 0,-5.15209 6.936271,-7.00484 9.561164,-2.55389 3.051958,5.17513 -3.400388,10.21082 -7.910897,6.174 z m 5.283398,-1.91514 c 1.154707,-1.04672 1.183004,-2.10988 0.08842,-3.32139 -1.201001,-1.32929 -3.04781,-1.17284 -4.038826,0.34215 -0.772153,1.18042 -0.772153,1.36812 0,2.54853 0.961241,1.46948 2.606594,1.64887 3.95041,0.43071 z M 78.378525,44.27785 c -1.504206,-1.05533 -2.638798,-3.73992 -2.253659,-5.33242 0.546751,-2.2607 2.683946,-4.03053 4.867158,-4.03053 2.503576,0 3.73243,0.66363 4.700271,2.53833 1.225215,2.37323 0.961705,3.99633 -0.961572,5.92279 -1.96642,1.96969 -4.348186,2.30782 -6.352198,0.90183 z m 4.756165,-2.71623 c 1.256011,-1.39018 0.679474,-3.46687 -1.085677,-3.91063 -1.769914,-0.44496 -2.926852,0.34134 -3.137537,2.13239 -0.296309,2.51895 2.492902,3.69338 4.223214,1.77824 z M 57.903752,37.13515 c -0.847765,-1.0231 0.954476,-2.22025 3.342438,-2.22025 2.239281,0 3.620636,0.92135 3.213875,2.14364 -0.276235,0.83009 -5.877722,0.89555 -6.556313,0.0766 z"
     style="fill:#de5c0f;fill-opacity:1" />
</svg>
