<?xml version="1.0" encoding="UTF-8" standalone="no"?>
<svg
   xmlns:dc="http://purl.org/dc/elements/1.1/"
   xmlns:cc="http://creativecommons.org/ns#"
   xmlns:rdf="http://www.w3.org/1999/02/22-rdf-syntax-ns#"
   xmlns:svg="http://www.w3.org/2000/svg"
   xmlns="http://www.w3.org/2000/svg"
   viewBox="0 0 64.999999 64.999999"
   height="65"
   width="65"
   version="1.1"
   id="svg2">
  <metadata
     id="metadata8">
    <rdf:RDF>
      <cc:Work
         rdf:about="">
        <dc:format>image/svg+xml</dc:format>
        <dc:type
           rdf:resource="http://purl.org/dc/dcmitype/StillImage" />
        <dc:title></dc:title>
      </cc:Work>
    </rdf:RDF>
  </metadata>
  <defs
     id="defs6" />
  <path
     id="path8070"
     d="m 28.227674,64.716626 c -4.546827,-0.64741 -9.131201,-2.30301 -12.980529,-4.68779 -3.261732,-2.02075 -7.808698,-6.49757 -9.9268304,-9.77371 C -1.7826932,39.268842 -1.7727372,25.430044 5.3460436,14.494779 6.9356513,12.052962 11.859314,7.023186 14.074756,5.577954 20.195155,1.58534 25.431901,0 32.499999,0 c 7.068097,0 12.304844,1.58534 18.425245,5.577954 2.215439,1.445232 7.139101,6.475008 8.728714,8.916825 7.118779,10.935265 7.128735,24.774063 0.02573,35.760347 -2.118133,3.27614 -6.665098,7.75296 -9.926829,9.77371 -6.388833,3.95808 -14.398787,5.70251 -21.525183,4.68779 z m 9.254073,-2.35258 C 48.30815,60.502806 57.190398,53.131836 60.9105,42.921593 64.957276,31.814788 62.359394,19.707362 54.124686,11.296243 50.048579,7.132814 45.541237,4.531649 39.686816,2.964228 37.361334,2.34162 36.507874,2.257716 32.5,2.257716 c -4.007874,0 -4.861334,0.0839 -7.186818,0.706512 C 19.458764,4.531649 14.951424,7.132814 10.875311,11.296243 0.33908855,22.058179 -0.71196321,38.685722 8.3791655,50.785036 c 6.7033425,8.92143 18.1258665,13.4661 29.1025815,11.57901 z m -21.281653,-13.07688 -0.822002,-0.82337 0.08521,-9.691066 0.08521,-9.691067 0.895811,-0.801413 c 1.171786,-1.048298 1.204856,-1.913556 0.07314,-1.913556 l -0.822677,0 0.16721,-1.725566 c 0.09197,-0.949065 0.308752,-2.036174 0.481751,-2.415801 l 0.314543,-0.690224 8.999968,-0.07277 c 10.200083,-0.08247 9.873719,-0.149527 9.873719,2.028872 0,0.674538 0.14361,1.456775 0.319134,1.738295 0.452276,0.725406 0.09992,1.413285 -0.723934,1.413285 -0.955228,0 -0.901239,0.692407 0.129167,1.656546 l 0.826901,0.773722 0,9.841061 0,9.841062 -0.676557,0.67767 -0.676554,0.67768 -8.85402,0 -8.854014,0 -0.822002,-0.82336 z m 18.33767,-0.99381 c 0.09202,-0.24019 0.167308,-0.73716 0.167308,-1.10437 l 0,-0.66764 -8.958104,0 -8.958103,0 0,0.77305 c 0,0.42518 0.148843,0.92215 0.330761,1.10437 0.242891,0.24329 2.578282,0.33131 8.790795,0.33131 7.460177,0 8.479811,-0.0516 8.627343,-0.43672 z m 0.167308,-8.260152 0,-5.107684 -8.958104,0 -8.958103,0 0,5.107684 0,5.107682 8.958103,0 8.958104,0 0,-5.107682 z m -14.059245,2.838637 c -1.3569,-0.913114 -1.900803,-2.518474 -1.347036,-3.975855 0.232288,-0.611325 0.797466,-1.328454 1.330592,-1.688326 0.866935,-0.585195 1.211032,-0.625593 5.328591,-0.625593 l 4.401808,0 1.07011,1.071883 C 32.364937,38.59054 32.5,38.887254 32.5,40.004778 c 0,1.070956 -0.153332,1.446656 -0.942869,2.31023 l -0.942871,1.03129 -4.502815,0.08673 c -4.339541,0.08359 -4.537729,0.06324 -5.465618,-0.561183 z m 4.412056,-2.838637 0,-2.070683 -1.592474,0 c -2.495293,0 -3.605699,1.243634 -2.691498,3.01444 0.511639,0.991044 0.72393,1.077966 2.699077,1.105125 l 1.584895,0.02177 0,-2.070684 z m 5.38739,1.393005 c 0.920681,-0.92221 0.899691,-2.143441 -0.0497,-2.891471 -0.547238,-0.431167 -1.124748,-0.572217 -2.342889,-0.572217 l -1.616631,0 0,2.070683 0,2.070684 1.666331,0 c 1.401682,0 1.773788,-0.107635 2.342889,-0.677679 z m 4.259799,-9.802895 c 0,-1.412114 -0.114885,-2.016164 -0.433209,-2.277751 -1.208575,-0.993184 -1.496229,-1.380102 -1.496229,-2.012552 l 0,-0.690224 -7.028666,0 -7.028665,0 0,0.966317 c 0,0.531478 -0.129673,0.966317 -0.288163,0.966317 -0.158489,0 -0.592613,0.304958 -0.964719,0.677684 -0.564871,0.565809 -0.676556,0.945604 -0.676556,2.300757 0,0.892694 0.08269,1.705909 0.183758,1.807141 0.101065,0.101232 4.132212,0.184058 8.9581,0.184058 l 8.774349,0 0,-1.921747 z m -7.385367,-2.978018 c -2.517515,-0.07132 -3.144763,-0.170988 -3.278865,-0.521029 -0.285133,-0.744283 0.493798,-0.920709 4.084177,-0.92507 2.865215,-0.0032 3.545623,0.07427 3.84847,0.439785 0.312571,0.377249 0.289003,0.501789 -0.156751,0.828273 -0.288551,0.211343 -0.717991,0.357701 -0.954312,0.325244 -0.236325,-0.03245 -1.830547,-0.0987 -3.542719,-0.147203 z m -7.685497,-0.51187 c -0.229367,-0.598715 0.377149,-0.929998 1.702617,-0.929998 1.325469,0 1.931985,0.331283 1.70262,0.929998 -0.12718,0.331972 -0.551006,0.441995 -1.70262,0.441995 -1.151611,0 -1.575437,-0.110023 -1.702617,-0.441995 z m 14.519596,-4.113503 0,-1.24241 -1.102536,0 c -0.979138,0 -1.102536,0.07394 -1.102536,0.660687 0,0.746834 -0.603096,1.109599 -1.068948,0.642974 -0.170073,-0.170354 -0.309222,-0.533368 -0.309222,-0.806698 0,-0.395731 -0.224588,-0.496963 -1.102535,-0.496963 -0.982146,0 -1.102536,0.07285 -1.102536,0.667219 0,0.366969 -0.155045,0.721392 -0.344542,0.7876 -0.607608,0.212301 -1.033628,-0.115012 -1.033628,-0.794132 0,-0.586744 -0.123398,-0.660687 -1.102536,-0.660687 -0.877945,0 -1.102536,0.101232 -1.102536,0.496963 0,0.27333 -0.139149,0.636344 -0.309221,0.806698 -0.465852,0.466625 -1.068948,0.10386 -1.068948,-0.642974 0,-0.586744 -0.123399,-0.660687 -1.102536,-0.660687 -0.877945,0 -1.102536,0.101232 -1.102536,0.496963 0,0.27333 -0.139148,0.636344 -0.309221,0.806698 -0.465852,0.466625 -1.068948,0.10386 -1.068948,-0.642974 0,-0.586744 -0.123398,-0.660687 -1.102536,-0.660687 -1.101559,0 -1.102536,0.0011 -1.102536,1.098527 l 0,1.098527 5.44377,0.08104 c 2.994075,0.04458 6.715131,0.109324 8.269019,0.143883 l 2.825248,0.06284 0,-1.24241 z m 2.530443,25.469403 c 0.08695,-0.61323 0.154333,-0.62298 5.250763,-0.75925 l 5.162685,-0.13805 0.763445,-0.76552 0.763446,-0.76553 0,-14.235064 0,-14.23506 -0.900161,-0.805627 -0.900156,-0.805626 -8.113883,0 c -5.246944,0 -8.345852,0.105869 -8.770386,0.299618 -0.753041,0.343676 -1.574509,1.59861 -1.574509,2.40533 0,0.58246 -0.686446,1.003774 -1.158909,0.71129 -0.428988,-0.265569 -0.0731,-2.182554 0.574254,-3.093182 1.159067,-1.630461 1.621661,-1.70351 10.787237,-1.70351 8.050917,0 8.363248,0.02004 9.398784,0.603005 0.710311,0.39988 1.271802,1.018231 1.66685,1.835638 0.594145,1.229378 0.59525,1.269775 0.419181,15.299414 -0.166888,13.298114 -0.205929,14.114334 -0.714469,14.936894 -1.05241,1.70227 -1.597385,1.83643 -7.459654,1.83643 l -5.282595,0 0.08808,-0.6212 z m 1.170075,-1.95572 c -0.07758,-0.2025 -0.104695,-1.41385 -0.06026,-2.691886 0.07549,-2.170989 0.12155,-2.329491 0.700973,-2.411922 0.607918,-0.08648 0.620176,-0.03326 0.620176,2.691888 0,2.61037 -0.03419,2.78012 -0.559919,2.78012 -0.307956,0 -0.623395,-0.1657 -0.700974,-0.3682 z m 4.915402,-0.86443 c -1.090862,-0.48262 -1.881087,-1.972427 -1.613228,-3.041428 0.238556,-0.952055 1.285916,-2.001155 2.236393,-2.240106 1.030573,-0.259085 2.484886,0.49517 3.044389,1.578931 1.17397,2.273973 -1.285163,4.756593 -3.667554,3.702603 z m 2.133804,-1.52829 c 0.303197,-0.303694 0.551268,-0.738539 0.551268,-0.966315 0,-0.227776 -0.248071,-0.662621 -0.551268,-0.966317 -0.303197,-0.303702 -0.737321,-0.552186 -0.964719,-0.552186 -0.227398,0 -0.661521,0.248484 -0.964719,0.552186 -0.303197,0.303696 -0.551267,0.738541 -0.551267,0.966317 0,0.227776 0.24807,0.662621 0.551267,0.966315 0.303198,0.3037 0.737321,0.55219 0.964719,0.55219 0.227398,0 0.661522,-0.24849 0.964719,-0.55219 z M 38.046267,41.198822 C 37.715786,40.867794 37.581133,19.08828 37.904353,18.244591 c 0.198648,-0.518532 1.107762,-0.584908 1.254635,-0.09161 0.05651,0.189816 0.06013,5.460476 0.008,11.712583 -0.07504,9.005382 -0.169195,11.396088 -0.453126,11.505223 -0.197121,0.07577 -0.497551,-0.0016 -0.667621,-0.171969 z m 4.183345,-2.27084 c -0.739751,-0.519003 -1.266995,-2.06044 -1.029273,-3.009159 0.262188,-1.046381 1.634625,-2.097669 2.73847,-2.097669 1.213041,0 2.544666,1.119495 2.771361,2.329876 0.196644,1.04994 -0.404664,2.459812 -1.240106,2.907673 -0.779582,0.417912 -2.560891,0.346049 -3.240452,-0.130721 z m 2.792044,-1.39932 c 0.565061,-0.565998 0.546816,-1.020895 -0.07162,-1.785907 -1.049125,-1.297758 -3.040487,0.151574 -2.126997,1.54805 0.507273,0.775478 1.549339,0.888215 2.19862,0.237857 z M 42.088891,31.0885 c -0.739736,-0.662052 -0.893895,-1.00022 -0.893895,-1.960893 0,-2.790716 3.757147,-3.794289 5.178964,-1.383357 1.653144,2.803195 -1.841877,5.530861 -4.285069,3.34425 z m 2.861841,-1.037368 c 0.625466,-0.566973 0.640794,-1.142852 0.04789,-1.799086 -0.650542,-0.720032 -1.650897,-0.635288 -2.187698,0.185331 -0.418249,0.639394 -0.418249,0.741065 0,1.380454 0.520673,0.795968 1.411905,0.893138 2.139806,0.233301 z m -2.495696,-6.067295 c -0.814778,-0.571637 -1.429349,-2.02579 -1.220732,-2.888394 0.296157,-1.224546 1.453804,-2.183204 2.636377,-2.183204 1.356104,0 2.021733,0.359466 2.545981,1.374929 0.663658,1.285499 0.520923,2.164678 -0.520852,3.208178 -1.065144,1.066915 -2.355267,1.250069 -3.440774,0.488491 z m 2.576256,-1.471291 c 0.680339,-0.753015 0.368049,-1.877888 -0.588075,-2.118258 -0.958703,-0.24102 -1.585378,0.184892 -1.699499,1.155044 -0.160501,1.364432 1.350322,2.000581 2.287574,0.963214 z M 31.364534,20.114874 c -0.459207,-0.554179 0.517007,-1.202635 1.810487,-1.202635 1.212944,0 1.961178,0.499064 1.740849,1.161138 -0.149627,0.449632 -3.183766,0.48509 -3.551336,0.04149 z"
     style="fill:#ffffff;fill-opacity:1" />
</svg>
