<?xml version="1.0" encoding="UTF-8" standalone="no"?>
<svg
   xmlns:dc="http://purl.org/dc/elements/1.1/"
   xmlns:cc="http://creativecommons.org/ns#"
   xmlns:rdf="http://www.w3.org/1999/02/22-rdf-syntax-ns#"
   xmlns:svg="http://www.w3.org/2000/svg"
   xmlns="http://www.w3.org/2000/svg"
   viewBox="0 0 120 120"
   height="120"
   width="120"
   version="1.1"
   id="svg2">
  <metadata
     id="metadata8">
    <rdf:RDF>
      <cc:Work
         rdf:about="">
        <dc:format>image/svg+xml</dc:format>
        <dc:type
           rdf:resource="http://purl.org/dc/dcmitype/StillImage" />
        <dc:title></dc:title>
      </cc:Work>
    </rdf:RDF>
  </metadata>
  <defs
     id="defs6" />
  <path
     id="path8070"
     d="M 52.112884,119.47676 C 43.719012,118.28131 35.255824,115.22424 28.149599,110.82073 22.128136,107.08942 13.734004,98.82296 9.8237321,92.77357 -3.2979364,72.47369 -3.2728442,47.02031 9.8888421,26.72811 12.928347,22.04191 21.954845,12.89539 26.416149,9.98103 37.145498,2.97207 47.145825,0 60.000003,0 c 12.854178,0 22.854506,2.97207 33.583855,9.98103 4.461297,2.91436 13.487802,12.06088 16.527302,16.74708 13.16169,20.2922 13.18678,45.74558 0.0651,66.04546 -3.91028,6.04939 -12.304415,14.31585 -18.325874,18.04716 -11.794389,7.30861 -26.581519,10.52969 -39.73752,8.65603 z m 16.791927,-4.27126 c 23.162728,-3.78266 41.502609,-21.63265 46.106929,-44.87534 0.91221,-4.60487 0.91221,-16.29703 0,-20.9019 C 112.80258,38.27636 107.43973,28.26852 99.364735,20.22872 92.120378,13.01593 83.689308,8.24174 73.267541,5.45087 68.974482,4.30122 67.398915,4.14629 60.000001,4.14629 c -7.398914,0 -8.974481,0.15493 -13.267544,1.30458 -10.421766,2.79087 -18.852832,7.56506 -26.097191,14.77785 -8.074988,8.0398 -13.4378369,18.04764 -15.6469988,29.19954 -0.9122148,4.60487 -0.9122148,16.29703 0,20.9019 5.9190298,29.87936 34.1919828,49.72959 63.9165438,44.87533 z m -39.944433,-53.03218 0,-25.74503 30.7852,0 30.7852,0 0,25.74503 0,25.74503 -30.7852,0 -30.7852,0 0,-25.74503 z m 59.535015,23.19601 c 0,-0.33379 -9.827686,-0.5098 -28.465362,-0.5098 -18.428019,0 -28.576253,0.17977 -28.779845,0.5098 -0.20824,0.33757 9.408372,0.50981 28.465362,0.50981 18.847333,0 28.779845,-0.17595 28.779845,-0.50981 z m 0,-3.38928 c 0,-0.73904 -0.505712,-0.80082 -4.197982,-0.51285 -2.308892,0.18007 -15.246309,0.32878 -28.749815,0.33046 -16.026627,0.002 -24.551833,0.18008 -24.551833,0.51286 0,0.33385 9.922502,0.5098 28.749815,0.5098 26.365203,0 28.749815,-0.0697 28.749815,-0.84027 z m -0.110647,-2.95736 c 0.154143,-0.15444 0.153643,-0.40764 -0.0012,-0.56269 -0.529228,-0.53033 -57.387761,0.41513 -57.387761,0.95427 0,0.5368 56.849508,0.14891 57.388983,-0.39158 z M 76.155871,76.19374 c 7.886547,-4e-4 12.339522,-0.18483 12.339522,-0.51065 0,-0.32885 -5.569795,-0.50981 -15.691696,-0.50981 -22.03858,0 -41.807934,0.55975 -41.807934,1.18374 0,0.33713 5.571749,0.39622 16.410293,0.17401 9.025659,-0.18504 21.963075,-0.33682 28.749815,-0.33729 z m -13.02815,-3.05967 c 16.572549,0 25.367672,-0.17675 25.367672,-0.5098 0,-0.63893 -56.807509,-0.70954 -57.201344,-0.0711 -0.557313,0.90345 0.55452,1.18882 3.465491,0.88947 1.650278,-0.16971 14.415961,-0.30856 28.368181,-0.30856 z m 25.367672,-18.86269 0,-15.80388 -28.749815,0 -28.749815,0 0,15.80388 0,15.80388 28.749815,0 28.749815,0 0,-15.80388 z M 33.068078,67.71239 c -0.580044,-0.73879 -1.054622,-1.7402 -1.054622,-2.22535 0,-1.7099 1.987753,-3.56862 3.816347,-3.56862 1.82859,0 3.816347,1.85872 3.816347,3.56862 0,1.70989 -1.987757,3.56861 -3.816347,3.56861 -1.238137,0 -1.996819,-0.36901 -2.761725,-1.34326 z m 4.033841,-1.46065 c 0.505378,-0.61009 0.505378,-0.91932 0,-1.52941 -1.271591,-1.53505 -3.084106,-0.36055 -2.360221,1.52941 0.161093,0.42059 0.615513,0.7647 1.009828,0.7647 0.394315,0 1.001988,-0.34411 1.350393,-0.7647 z m 18.064042,1.92262 C 53.783638,67.60623 51.130574,67.27692 46.897209,67.148 l -6.233367,-0.18983 0,-1.53949 c 0,-2.23562 -2.423243,-4.51987 -4.794899,-4.51987 l -1.820102,0 0,-6.37253 0,-6.37253 1.487496,0 c 2.198391,0 4.552309,-2.20867 4.939525,-4.63473 l 0.318049,-1.9927 5.81197,0 c 4.552794,0 6.164778,-0.19175 7.440444,-0.88504 1.160063,-0.63046 2.799399,-0.88503 5.699253,-0.88503 2.899854,0 4.53919,0.25457 5.699249,0.88503 1.278662,0.69492 2.890952,0.88504 7.505483,0.88504 l 5.877004,0 0,1.56862 c 0,2.2657 2.406725,4.54901 4.794899,4.54901 l 1.820103,0 0,6.37253 0,6.37253 -1.518512,0 c -2.183992,0 -4.651034,2.35419 -4.825943,4.60517 l -0.137327,1.76736 -6.299981,0.29413 c -4.029676,0.18813 -7.033461,0.59343 -8.335358,1.12468 -2.607426,1.06397 -6.562196,1.06138 -9.159234,-0.006 z m 9.581902,-2.36349 1.809319,-0.75741 -2.260894,-2.26515 C 61.385679,59.87224 61.301919,58.31193 63.911486,55.6202 l 1.8761,-1.93517 -0.983547,-1.82978 c -1.25786,-2.34008 -3.494882,-3.69927 -6.076154,-3.69179 -2.778264,0.008 -3.581093,0.56476 -2.833288,1.96467 0.318607,0.59644 0.781189,1.08443 1.027951,1.08443 0.24677,0 -0.04462,0.90226 -0.647517,2.00501 l -1.09619,2.005 1.138465,1.21412 c 1.782012,1.90044 1.493809,3.90756 -0.896921,6.24643 -1.119462,1.09518 -2.035386,2.16715 -2.035386,2.38215 0,0.215 1.087657,0.73888 2.41702,1.16418 2.734068,0.8747 6.249308,0.71022 8.945844,-0.41858 z M 48.442661,63.83018 c -4.506147,-4.92751 -4.630746,-13.88441 -0.262398,-18.8627 0.735157,-0.8378 0.595078,-0.89215 -2.299313,-0.89215 -2.966985,0 -3.102049,0.0571 -3.614201,1.52906 -0.67322,1.93484 -2.794784,3.92411 -4.611385,4.32386 -1.56458,0.34428 -1.757302,1.30207 -1.258572,6.25489 0.218279,2.16771 0.448574,2.67646 1.211543,2.67646 1.41169,0 3.941124,2.36559 4.660437,4.35855 0.634837,1.75891 0.635227,1.75908 3.928875,1.75908 l 3.293982,0 -1.048968,-1.14705 z m 28.058497,0.34593 c 0.439793,-0.44061 0.799617,-1.00616 0.799617,-1.25676 0,-1.01203 3.192896,-4.0095 4.600943,-4.31934 1.406785,-0.30957 1.504846,-0.48692 1.499611,-2.71228 -0.0097,-4.11241 -0.531814,-6.20457 -1.548476,-6.20457 -1.385524,0 -3.917567,-2.38336 -4.630465,-4.35855 -0.624489,-1.73022 -0.683311,-1.75908 -3.585758,-1.75908 -2.730388,0 -3.687011,0.5036 -2.432334,1.28049 0.285186,0.17659 1.131385,1.50924 1.880439,2.96146 1.121339,2.17396 1.361917,3.31579 1.361917,6.4639 0,3.14811 -0.240578,4.28994 -1.361917,6.4639 -0.749054,1.45222 -1.595253,2.78487 -1.880439,2.96146 -1.19559,0.7403 -0.356351,1.28049 1.989361,1.28049 1.601437,0 2.7969,-0.28956 3.307501,-0.80112 z m -23.0104,-2.61606 c 2.218879,-2.17075 2.331025,-2.68828 0.869659,-4.01329 -0.857996,-0.77793 -1.004963,-1.35155 -0.771264,-3.01038 0.399489,-2.83566 0.39942,-2.82097 0.02467,-5.12963 -0.305633,-1.88299 -0.218148,-2.11383 1.014396,-2.67647 2.037441,-0.93006 6.158094,-0.75524 8.317894,0.35289 2.379703,1.22095 4.218507,3.69508 4.530686,6.09609 0.210166,1.61636 0.0053,2.08435 -1.582312,3.61369 -1.003042,0.96627 -1.823726,2.02928 -1.823726,2.36224 0,0.33295 0.935874,1.45247 2.079724,2.48781 1.982046,1.79403 2.124845,1.84153 3.040243,1.01156 1.78739,-1.6206 3.191187,-5.30836 3.191187,-8.38318 0,-5.46675 -3.665994,-10.39968 -8.882035,-11.95159 -3.302029,-0.98244 -4.190296,-0.98729 -7.373317,-0.0402 -3.190038,0.94912 -6.395534,3.67006 -7.836188,6.65165 -1.249124,2.58519 -1.489531,7.12969 -0.511618,9.67126 0.637096,1.6558 2.906876,4.84538 3.448077,4.84538 0.183856,0 1.202619,-0.8495 2.263914,-1.88777 z m 28.553063,6.90077 c -1.614203,-0.79816 -2.402056,-2.9887 -1.661001,-4.61821 0.589419,-1.29605 2.382093,-2.43399 3.834454,-2.43399 1.194861,0 3.260427,2.37183 3.260427,3.74386 0,2.59692 -3.0801,4.47219 -5.43388,3.30834 z m 3.229623,-2.75842 c 0.408314,-1.06604 -0.949691,-2.37943 -2.030598,-1.96387 -0.469853,0.18065 -0.853608,0.87664 -0.853608,1.54815 0,0.96545 0.268715,1.21996 1.288085,1.21996 0.708449,0 1.426703,-0.3619 1.596121,-0.80424 z M 33.262441,45.88281 c -2.913255,-2.91873 0.08702,-7.44314 3.889385,-5.86519 3.904923,1.62051 2.38815,7.06342 -1.981211,7.10956 -0.362555,0.004 -1.221231,-0.55613 -1.908174,-1.24437 z m 3.839478,-2.62673 c 0,-0.96545 -0.268716,-1.21996 -1.28809,-1.21996 -1.622133,0 -2.25918,1.43595 -1.03494,2.33282 1.219847,0.89365 2.32303,0.36516 2.32303,-1.11286 z m 43.797714,2.02501 c -0.580048,-0.7388 -1.054627,-1.74021 -1.054627,-2.22537 0,-1.70989 1.987758,-3.56861 3.816348,-3.56861 1.82859,0 3.816347,1.85872 3.816347,3.56861 0,1.7099 -1.987757,3.56862 -3.816347,3.56862 -1.238137,0 -1.996819,-0.36901 -2.761725,-1.34325 z m 3.942317,-2.1054 c 0.2087,-1.46584 -1.230028,-2.07323 -2.321247,-0.97997 -0.675646,0.67692 -0.697591,0.94129 -0.134547,1.62098 0.915692,1.10542 2.256982,0.75532 2.455794,-0.64101 z"
     style="fill:#de5c0f;fill-opacity:1" />
</svg>
