<?xml version="1.0" encoding="UTF-8" standalone="no"?>
<svg
   xmlns:dc="http://purl.org/dc/elements/1.1/"
   xmlns:cc="http://creativecommons.org/ns#"
   xmlns:rdf="http://www.w3.org/1999/02/22-rdf-syntax-ns#"
   xmlns:svg="http://www.w3.org/2000/svg"
   xmlns="http://www.w3.org/2000/svg"
   viewBox="0 0 65 65"
   height="65"
   width="65"
   version="1.1"
   id="svg2">
  <metadata
     id="metadata8">
    <rdf:RDF>
      <cc:Work
         rdf:about="">
        <dc:format>image/svg+xml</dc:format>
        <dc:type
           rdf:resource="http://purl.org/dc/dcmitype/StillImage" />
        <dc:title></dc:title>
      </cc:Work>
    </rdf:RDF>
  </metadata>
  <defs
     id="defs6" />
  <path
     id="path8070"
     d="m 28.227812,64.716582 c -4.546681,-0.64754 -9.130908,-2.30345 -12.980113,-4.68869 -3.261626,-2.02112 -7.808447,-6.49879 -9.9265109,-9.77554 C -1.7863822,39.256582 -1.7727906,25.469335 5.3564561,14.477726 7.0028546,11.939368 11.892207,6.985003 14.308747,5.406391 20.120478,1.609871 25.537321,0 32.500001,0 c 6.962679,0 12.379524,1.609871 18.191254,5.406391 2.416536,1.578612 7.305893,6.532977 8.952289,9.071335 7.129248,10.991609 7.142839,24.778856 0.03526,35.774626 -2.118068,3.27675 -6.664891,7.75442 -9.926515,9.77554 -6.388627,3.95883 -14.398322,5.70359 -21.524489,4.68869 z m 9.095626,-2.3136 c 12.546478,-2.04894 22.48058,-11.71769 24.974586,-24.307478 0.494114,-2.494305 0.494114,-8.827558 0,-11.321863 C 61.101396,20.733028 58.196519,15.312115 53.822564,10.957223 49.898537,7.050295 45.331707,4.464275 39.686584,2.952554 37.361177,2.329827 36.507745,2.245907 32.5,2.245907 c -4.007745,0 -4.861177,0.08392 -7.186586,0.706647 -5.645123,1.511721 -10.211951,4.097741 -14.135978,8.004669 -4.3739522,4.354892 -7.2788286,9.775805 -8.475458,15.816418 -0.4941163,2.494305 -0.4941163,8.827558 0,11.321863 3.2061411,16.184658 18.520657,26.936858 34.62146,24.307468 z m -21.636567,-28.725767 0,-13.945225 16.675316,0 16.675317,0 0,13.945225 0,13.945227 -16.675317,0 -16.675316,0 0,-13.945227 z m 32.248132,12.564507 c 0,-0.1808 -5.323329,-0.27614 -15.418737,-0.27614 -9.981843,0 -15.478803,0.0974 -15.589082,0.27614 -0.112797,0.18285 5.096201,0.27615 15.418737,0.27615 10.208972,0 15.589082,-0.0953 15.589082,-0.27615 z m 0,-1.835861 c 0,-0.400313 -0.273927,-0.433778 -2.273906,-0.277794 -1.25065,0.09754 -8.258418,0.178089 -15.572817,0.178999 -8.681089,0.0011 -13.298909,0.09754 -13.298909,0.277799 0,0.180836 5.374689,0.276142 15.572816,0.276142 14.281152,0 15.572816,-0.03775 15.572816,-0.455146 z m -0.05993,-1.601903 c 0.08349,-0.08366 0.08322,-0.220806 -6.5e-4,-0.304791 -0.286665,-0.287262 -31.085037,0.224862 -31.085037,0.516896 0,0.290767 30.793483,0.08066 31.085699,-0.212105 z M 41.251099,41.27161 c 4.271879,-2.17e-4 6.683907,-0.100117 6.683907,-0.276603 0,-0.178127 -3.016972,-0.276147 -8.499668,-0.276147 -11.937564,0 -22.645964,0.303198 -22.645964,0.641193 0,0.182612 3.018031,0.214619 8.888909,0.09426 4.888898,-0.10023 11.896665,-0.182444 15.572816,-0.182698 z m -7.056915,-1.657322 c 8.976798,0 13.740822,-0.09574 13.740822,-0.276141 0,-0.346087 -30.770733,-0.384335 -30.98406,-0.03851 -0.301878,0.489369 0.300365,0.643944 1.877141,0.481796 0.8939,-0.09193 7.808645,-0.167136 15.366097,-0.167136 z m 13.740822,-10.21729 0,-8.560436 -15.572816,0 -15.572816,0 0,8.560436 0,8.560435 15.572816,0 15.572816,0 0,-8.560435 z m -30.023131,7.280547 c -0.31419,-0.400178 -0.571253,-0.942608 -0.571253,-1.205398 0,-0.926196 1.076699,-1.933003 2.067188,-1.933003 0.990486,0 2.067187,1.006807 2.067187,1.933003 0,0.92619 -1.076701,1.932997 -2.067187,1.932997 -0.670658,0 -1.081611,-0.19988 -1.495935,-0.727599 z m 2.184997,-0.791186 c 0.273747,-0.330465 0.273747,-0.497965 0,-0.82843 -0.688778,-0.831485 -1.670557,-0.195298 -1.278453,0.82843 0.08726,0.22782 0.333403,0.414213 0.54699,0.414213 0.213588,0 0.542744,-0.186393 0.731463,-0.414213 z m 9.78469,1.04142 c -0.748759,-0.307737 -2.185835,-0.486114 -4.478908,-0.555945 l -3.376407,-0.102825 0,-0.83389 c 0,-1.210961 -1.31259,-2.448263 -2.597237,-2.448263 l -0.985888,0 0,-3.451788 0,-3.451787 0.805727,0 c 1.190795,0 2.465834,-1.196363 2.675576,-2.510478 l 0.172276,-1.07938 3.148151,0 c 2.466096,0 3.339254,-0.103864 4.03024,-0.479396 0.628367,-0.3415 1.516341,-0.479392 3.087095,-0.479392 1.570755,0 2.458728,0.137892 3.087093,0.479392 0.692609,0.376415 1.565933,0.479396 4.06547,0.479396 l 3.183377,0 0,0.84967 c 0,1.227254 1.303643,2.464047 2.597237,2.464047 l 0.985889,0 0,3.451787 0,3.451787 -0.822527,0 c -1.182995,0 -2.51931,1.275186 -2.614052,2.494467 l -0.07439,0.95732 -3.412489,0.159321 c -2.182741,0.101903 -3.809792,0.321441 -4.514986,0.609201 -1.412356,0.576317 -3.554523,0.574914 -4.961251,-0.0032 z m 5.190196,-1.280224 0.980048,-0.410264 -1.224651,-1.226956 c -1.57658,-1.579538 -1.62195,-2.424706 -0.208434,-3.882727 l 1.016221,-1.048217 -0.532755,-0.99113 c -0.681341,-1.267544 -1.893061,-2.003772 -3.29125,-1.99972 -1.504893,0.0043 -1.939759,0.305912 -1.534698,1.064196 0.172579,0.323072 0.423144,0.5874 0.556807,0.5874 0.133667,0 -0.02417,0.488724 -0.350738,1.086047 l -0.59377,1.086042 0.616669,0.657648 c 0.965256,1.029405 0.809146,2.116595 -0.485832,3.383483 -0.606376,0.593222 -1.102501,1.173873 -1.102501,1.290331 0,0.116459 0.589147,0.400227 1.309219,0.630598 1.480953,0.473796 3.385042,0.384702 4.845665,-0.226731 z m -8.831984,-1.072874 c -2.440829,-2.669068 -2.508321,-7.520722 -0.142132,-10.217296 0.39821,-0.453808 0.322334,-0.483248 -1.245461,-0.483248 -1.607117,0 -1.680277,0.03093 -1.957692,0.828241 -0.364661,1.048038 -1.513842,2.12556 -2.497834,2.342091 -0.847481,0.186485 -0.951872,0.705288 -0.681726,3.388065 0.118234,1.174177 0.242977,1.44975 0.656252,1.44975 0.764665,0 2.134775,1.281361 2.524403,2.360881 0.34387,0.952743 0.344082,0.952835 2.128141,0.952835 l 1.78424,0 -0.568191,-0.621319 z m 15.198352,0.187379 c 0.238222,-0.238664 0.433126,-0.545004 0.433126,-0.680745 0,-0.548183 1.729485,-2.171813 2.492178,-2.339643 0.762008,-0.167683 0.815124,-0.263748 0.812289,-1.469151 -0.0053,-2.227556 -0.288066,-3.360809 -0.838758,-3.360809 -0.750492,0 -2.122015,-1.290987 -2.508168,-2.360882 -0.338265,-0.937202 -0.370127,-0.952835 -1.942286,-0.952835 -1.47896,0 -1.997131,0.272784 -1.317514,0.693599 0.154476,0.09565 0.612833,0.817505 1.018571,1.604124 0.607392,1.177562 0.737705,1.796053 0.737705,3.50128 0,1.705226 -0.130313,2.323717 -0.737705,3.501279 -0.405738,0.786619 -0.864095,1.508471 -1.018571,1.604124 -0.647611,0.400996 -0.193024,0.693599 1.07757,0.693599 0.867445,0 1.514988,-0.156845 1.791563,-0.43394 z M 28.97416,33.345027 c 1.201893,-1.175823 1.262638,-1.456151 0.471065,-2.173865 -0.464748,-0.421379 -0.544355,-0.73209 -0.417768,-1.630623 0.21639,-1.535982 0.216353,-1.528025 0.01336,-2.778549 -0.165551,-1.019953 -0.118163,-1.144992 0.549465,-1.449755 1.103613,-0.503782 3.335634,-0.409088 4.505525,0.191149 1.289006,0.661348 2.285025,2.001502 2.454122,3.302049 0.11384,0.875528 0.0029,1.129023 -0.857086,1.957415 -0.543314,0.523396 -0.987851,1.099193 -0.987851,1.279547 0,0.180348 0.506932,0.786754 1.126517,1.347564 1.073608,0.971766 1.150958,0.997495 1.646798,0.547928 0.96817,-0.877825 1.72856,-2.875362 1.72856,-4.540889 0,-2.961157 -1.985747,-5.63316 -4.811102,-6.473778 -1.788599,-0.532155 -2.269744,-0.534783 -3.99388,-0.02178 -1.727938,0.514106 -3.464248,1.987949 -4.244602,3.602977 -0.676609,1.400311 -0.806829,3.861915 -0.277127,5.238599 0.345094,0.896892 1.574558,2.624581 1.867709,2.624581 0.09959,0 0.651418,-0.460146 1.226287,-1.022542 z m 15.466242,3.737917 c -0.87436,-0.432336 -1.301114,-1.618879 -0.899709,-2.50153 0.319269,-0.702027 1.290301,-1.318411 2.076996,-1.318411 0.647216,0 1.766065,1.284741 1.766065,2.027924 0,1.406665 -1.668388,2.422436 -2.943352,1.792017 z M 46.189781,35.5888 c 0.22117,-0.577438 -0.514416,-1.288858 -1.099907,-1.063763 -0.254504,0.09785 -0.462371,0.474847 -0.462371,0.838582 0,0.522952 0.145554,0.660811 0.697713,0.660811 0.383743,0 0.772797,-0.196029 0.864565,-0.43563 z M 18.017155,24.853189 c -1.578013,-1.580979 0.04714,-4.031701 2.10675,-3.176978 2.115167,0.877776 1.293582,3.826019 -1.073156,3.851012 -0.196384,0.0022 -0.6615,-0.301238 -1.033594,-0.674034 z m 2.079717,-1.422812 c 0,-0.522952 -0.145554,-0.660812 -0.697715,-0.660812 -0.878655,0 -1.223723,0.777806 -0.560593,1.263611 0.660751,0.48406 1.258308,0.197795 1.258308,-0.602799 z m 23.723762,1.09688 c -0.314193,-0.400183 -0.571257,-0.942614 -0.571257,-1.205409 0,-0.92619 1.076703,-1.932997 2.067189,-1.932997 0.990486,0 2.067188,1.006807 2.067188,1.932997 0,0.926196 -1.076702,1.933003 -2.067188,1.933003 -0.670658,0 -1.081611,-0.199881 -1.495935,-0.727594 z m 2.135421,-1.140425 c 0.113046,-0.793997 -0.666265,-1.123 -1.257342,-0.530817 -0.365975,0.366665 -0.377862,0.509865 -0.07288,0.878031 0.496,0.598769 1.222532,0.409132 1.330222,-0.347214 z"
     style="fill:#ffffff;fill-opacity:1" />
</svg>
